<svg id="Layer_1" data-name="Layer 1" xmlns="http://www.w3.org/2000/svg" viewBox="0 0 236 226"><title>animation_icon</title><path d="M30.55,161.49l-5,44.94a1.51,1.51,0,0,0,1.9,1.45,231.31,231.31,0,0,0,42.38-18.36q5.74-3.22,11.3-6.76a1.52,1.52,0,0,0,.31-2.35q-19-18.9-39-36.81l.24,1.82c3.74-7,9.68-12.46,15.26-18l19-18.8,38.11-37.77,38.12-37.79c2.84-2.82,5.61-5.73,8.62-8.37a25.2,25.2,0,0,1,9.16-5.63c7.77-2.32,14.57,3.86,20.16,8.41a140.34,140.34,0,0,1,17.11,16.58c2,2.31,6.38,6.11,4,9.4a31.78,31.78,0,0,1-4.25,4.11l-5,4.55L193,71.23c-1,.87-1.86,1.8-2.84,2.64a10.38,10.38,0,0,1-1.25.87c.27-.18.39.18.17-.11s-.56-.32-.75-.45c-2.38-1.56-4.62-3.5-6.85-5.26a99,99,0,0,0-8.38-6.2c-5-3.14-12.1-6.58-17.79-3.18a6.67,6.67,0,0,0-3.12,7.32,9.49,9.49,0,0,0,2.14,4.41,23.71,23.71,0,0,0,3.91,3.14c2.52,1.93,5,4,7.5,5.86,2.82,2.11,5.85,3.85,8.73,5.85a14.39,14.39,0,0,1,2.91,2.54,1.64,1.64,0,0,1,.09,2.23c-1.4,2.38-4,4.06-6.18,5.72-2.86,2.21-5.46,4.77-8.13,7.21q-4.56,4.16-9.06,8.36-8.76,8.17-17.34,16.55-17.53,17.11-34.39,34.89-4.41,4.62-8.78,9.27c-1.32,1.41.79,3.53,2.12,2.13,11.66-12.39,23.47-24.65,35.53-36.64q17.58-17.47,35.91-34.15c2.58-2.35,5.16-4.62,7.9-6.76,2.15-1.69,4.7-3.65,5.6-6.35s-1.19-4.88-3.21-6.49c-2.67-2.14-5.74-3.74-8.52-5.73s-5.16-4-7.73-6-5.92-3.72-6.15-7.38c-.18-2.89,2.5-4.25,5.07-4.43,3.26-.23,6.73,1.5,9.52,3,5.82,3.2,10.92,7.9,16,11.77a8.14,8.14,0,0,0,3,1.7c1.32.29,2.48-.66,3.43-1.44,2.79-2.31,5.37-5,8-7.4l10.12-9.28c2.64-2.43,6.25-5,5.6-9.09a11,11,0,0,0-2.56-5c-1.23-1.55-2.54-3.06-3.86-4.54q-4.07-4.59-8.53-8.81t-9.27-8a55.05,55.05,0,0,0-9.79-6.76A16,16,0,0,0,171,15.92a24.87,24.87,0,0,0-9.68,5.19,114.19,114.19,0,0,0-8.78,8.26L142.86,39,123.45,58.19l-39,38.65L65,116.16c-6.12,6.07-12.55,12-18.27,18.41A49.16,49.16,0,0,0,40,143.91a1.53,1.53,0,0,0,.23,1.81q20,17.9,39,36.81l.31-2.36a227.83,227.83,0,0,1-40.75,20.54q-6,2.31-12.22,4.28l1.9,1.44,5-44.94c.21-1.92-2.79-1.9-3,0Z"/></svg>
