<svg id="Layer_1" data-name="Layer 1" xmlns="http://www.w3.org/2000/svg" viewBox="0 0 366 64"><title>arrow_right_b</title><path d="M19.83,53.66q27.86-6.09,56-10.69,28.31-4.63,56.84-7.75,28.2-3.09,56.53-4.68t57-1.71q28.52-.1,57,1.31c2.35.11,4.7.24,7,.37l-.64-1.13a3.18,3.18,0,0,1-4.08,1.08c-.85-.44-1.62.86-.75,1.29a4.7,4.7,0,0,0,6.12-1.61.75.75,0,0,0-.65-1.13q-28.59-1.61-57.25-1.68t-57,1.35q-28.6,1.42-57.12,4.38Q110.66,36,82.67,40.36,54.36,44.8,26.33,50.73c-2.3.48-4.6,1-6.9,1.48-.94.21-.54,1.65.4,1.45Z"/><path d="M258.32,16.42a6,6,0,0,0,1.35.2l1.22,0,1.94.07c1.62.07,3.24.17,4.86.28,3,.21,6,.49,8.94.83,6.14.7,12.24,1.65,18.32,2.75,12,2.19,23.92,5,35.84,7.67l20.35,4.62V31.43c-20.79,6.72-42.88,7-64.06,11.91a110.11,110.11,0,0,0-17.48,5.5c-.88.36-.5,1.81.39,1.45,20.23-8.38,42.38-9,63.65-13a142.41,142.41,0,0,0,17.89-4.41.76.76,0,0,0,0-1.45c-13.62-3.09-27.23-6.28-40.89-9.22a320.88,320.88,0,0,0-40.05-6.47q-2.89-.26-5.81-.41a53.66,53.66,0,0,0-5.66-.22c-.93.06-2,.53-1.87,1.62a1.23,1.23,0,0,0,1.83,1c.85-.46.09-1.75-.76-1.3Z"/></svg>
