<svg id="Layer_1" data-name="Layer 1" xmlns="http://www.w3.org/2000/svg" viewBox="0 0 236 153"><title>content_icon</title><path d="M140.5,132a107.24,107.24,0,0,0,19.9-3.54c8.08-2.4,16.26-6.33,21.62-13.05,6.86-8.59,7.77-20.6,5.67-31.07a47.91,47.91,0,0,0-19.41-29.68c-10-7.06-22.47-10.44-34.65-10.49-13.12-.06-26.7,3.71-36.59,12.64a40.57,40.57,0,0,0-10.3,14.44c-2.43,5.84-3,12.25-3.06,18.52a51.25,51.25,0,0,0,3.16,19.28,50.69,50.69,0,0,0,11,16.49A76.84,76.84,0,0,0,113,138.09a60.23,60.23,0,0,0,17.19,6.64,158.74,158.74,0,0,0,18.53,3.07c7.24.85,14.49,1.65,21.75,2.21a182.35,182.35,0,0,0,22.42.51c3.81-.18,7.62-.53,11.4-1.07,2.95-.42,6.5-.63,9-2.47,2.88-2.15,2.64-6.14,2.92-9.36.35-3.79.66-7.59,1-11.39q.88-11.66,1.48-23.33t.87-23.36c.17-7,.65-14.08-.22-21-.78-6.17-3-12-7.74-16.17A41.56,41.56,0,0,0,203.31,37a34.52,34.52,0,0,0-7.86-3.08c-5-1.18-11.34-.67-14,4.4a10.47,10.47,0,0,0,2.65,12.47c4.12,3.43,9.81,2,12.92-2a9.41,9.41,0,0,0-1.41-13.27c-4-3.3-9.5-3.85-14.31-5.33-5.62-1.74-9.9-5.59-14.12-9.52C162.53,16.32,157.9,12.4,152,10c-6.1-2.45-12.77-3.29-19.3-3.48-6.81-.21-14-.23-20.26,2.77-6,2.85-11,7.55-16.55,11.07A97.16,97.16,0,0,1,58.6,34.53a83.36,83.36,0,0,1-19.46.57l1.45,1.1a16.16,16.16,0,0,1-1.32-5.36c0-1.83,1.39-2.11,3-2.41a52.82,52.82,0,0,1,10.67-.63,12.65,12.65,0,0,1,4.89.66c1.05.48.68,1.17,0,1.9-2.16,2.34-5.89,3.75-9,4.12-4.42.52-8.93.33-13.29,1.35a14.88,14.88,0,0,0-10.26,7.91,25.94,25.94,0,0,0-2.09,6.95q-.78,4.23-1.49,8.46-1.29,7.6-2.29,15.25A306,306,0,0,0,17,123.28c.12,4.23,0,8.61.78,12.78A14.77,14.77,0,0,0,24,145.65a22.83,22.83,0,0,0,10,3.4,76.67,76.67,0,0,0,13.12.33c8.25-.32,16.5-1,24.76-1.2,8.59-.25,17.18-.15,25.77.17,2.8.1,5.6.23,8.4.37,1.93.1,1.93-2.9,0-3-9.73-.49-19.48-.79-29.23-.65-7.83.12-15.65.55-23.47,1-4.86.28-9.73.57-14.59.37-3.71-.14-7.63-.53-11-2.1a12,12,0,0,1-6.82-8,35.19,35.19,0,0,1-.7-7.24q-.12-2.91-.2-5.82A305.76,305.76,0,0,1,22.52,73.4c.72-5.34,1.56-10.66,2.48-16,.86-5,1.19-11,4.68-15,6-6.76,16.48-3.16,24-6.16,2.81-1.12,7-3.06,7.68-6.38.83-4-4-4.83-6.82-5a63.17,63.17,0,0,0-10.74.32,13,13,0,0,0-5.57,1.45,5,5,0,0,0-2,4.81A21.42,21.42,0,0,0,37.69,37a1.58,1.58,0,0,0,1.45,1.1,89.22,89.22,0,0,0,37-4.86,103.16,103.16,0,0,0,17.15-7.82c5.48-3.12,10.38-7,15.57-10.53a29.1,29.1,0,0,1,8.27-4.21,38.49,38.49,0,0,1,10-1.16,72,72,0,0,1,18.46,1.63,36.88,36.88,0,0,1,15.64,8.19c4.23,3.69,8.08,7.91,12.89,10.87,4.45,2.74,9.47,3.46,14.36,5,4,1.26,8.73,4.11,7.39,9-1.09,4-5.92,7.25-9.69,4.42-3.09-2.31-4.06-7.52-1.15-10.33,3.72-3.6,9.91-1.85,14.07-.07,5.26,2.26,10.92,5.52,14,10.53s3.54,11.25,3.59,17c0,7-.19,14.1-.42,21.14q-.7,21.87-2.5,43.69c-.29,3.6-.53,7.22-.95,10.81-.17,1.41-.5,2.63-1.81,3.36a13,13,0,0,1-4.2,1.16,119.79,119.79,0,0,1-21.15,1.65c-13.62,0-27.3-1.57-40.79-3.35-11.29-1.49-23.26-3.71-32.74-10.39-10-7.06-19.68-16.46-23.42-28.45a53.21,53.21,0,0,1-2-18.28c.27-5.93,1.07-11.69,3.78-17C101.78,47.81,131.4,43,153.27,50.42c10.86,3.7,20.53,10.79,26.31,20.81,5.68,9.85,7.71,22.09,4.76,33.15-4.24,15.86-22,21.54-36.41,23.73-2.47.37-5,.64-7.43.89-1.9.19-1.92,3.19,0,3Z"/></svg>
