<svg id="Layer_1" data-name="Layer 1" xmlns="http://www.w3.org/2000/svg" viewBox="0 0 244 226"><defs><style>.cls-1{opacity:0.55;}.cls-2{fill:#8d1481;}</style></defs><title>content_icon</title><g class="cls-1"><path class="cls-2" d="M57.81,72.17c-4.42.52-8.93.34-13.29,1.36a14.84,14.84,0,0,0-10.26,7.9,25.9,25.9,0,0,0-2.09,7q-.78,4.22-1.49,8.46-1.29,7.61-2.29,15.25A305.83,305.83,0,0,0,26,161c.12,4.24,0,8.61.78,12.79A14.82,14.82,0,0,0,33,183.35a22.81,22.81,0,0,0,10,3.39,76.67,76.67,0,0,0,13.12.34c8.25-.33,16.58-.84,24.84-1.08,8.59-.25,17.1-.28,25.69,0,2.8.1,5.6.23,8.4.37,1.93.1,1.93-2.9,0-3-9.73-.49-19.48-.79-29.23-.64-7.83.11-15.65.54-23.47,1-4.86.28-9.73.57-14.59.38-3.71-.15-7.63-.53-11-2.11a12,12,0,0,1-6.82-8,35.12,35.12,0,0,1-.7-7.24q-.12-2.91-.2-5.82a305.7,305.7,0,0,1,2.48-49.87c.72-5.34,1.56-10.67,2.48-16,.86-5,1.19-11,4.68-15,6-6.77,16.48-3.16,24-6.17"/><path class="cls-2" d="M46.69,74.69a1.58,1.58,0,0,0,1.45,1.1,89.37,89.37,0,0,0,37-4.85,104,104,0,0,0,17.15-7.82c5.48-3.13,10.38-7,15.57-10.53a28.85,28.85,0,0,1,8.27-4.21,38.06,38.06,0,0,1,10-1.16,71.1,71.1,0,0,1,18.46,1.63A36.76,36.76,0,0,1,170.3,57c4.23,3.69,8.08,7.91,12.89,10.88,4.45,2.73,9.47,3.46,14.36,5,4,1.27,8.73,4.12,7.39,9-1.09,4-5.92,7.26-9.69,4.43-3.09-2.32-4.06-7.52-1.15-10.34,3.72-3.59,9.91-1.85,14.07-.06,5.26,2.26,10.92,5.52,14,10.52s3.54,11.26,3.59,17c0,7-.19,14.1-.42,21.14q-.7,21.87-2.5,43.69c-.29,3.6-.53,7.23-.95,10.82-.17,1.41-.5,2.62-1.81,3.36a13.52,13.52,0,0,1-4.2,1.16,118.84,118.84,0,0,1-21.15,1.64c-13.62,0-27.3-1.57-40.79-3.35-11.29-1.48-23.26-3.7-32.74-10.38-10-7.06-19.68-16.47-23.42-28.45a53.24,53.24,0,0,1-2-18.28c.27-5.94,1.07-11.7,3.78-17.06,11.25-22.34,40.87-27.16,62.74-19.72,10.86,3.69,20.53,10.78,26.31,20.81,5.68,9.84,7.71,22.08,4.76,33.14-4.24,15.86-22,21.54-36.41,23.73-2.47.38-5,.65-7.43.89-1.9.19-1.92,3.2,0,3h0a106.42,106.42,0,0,0,19.9-3.54c8.08-2.39,16.26-6.32,21.62-13,6.86-8.6,7.77-20.61,5.67-31.07a48,48,0,0,0-19.41-29.69c-10-7.06-22.47-10.44-34.65-10.49-13.12,0-26.7,3.72-36.59,12.64a40.74,40.74,0,0,0-10.3,14.44c-2.43,5.85-3,12.25-3.06,18.53a51.2,51.2,0,0,0,3.16,19.27,50.63,50.63,0,0,0,11,16.5A76.79,76.79,0,0,0,122,175.78a59.94,59.94,0,0,0,17.19,6.64,156.66,156.66,0,0,0,18.53,3.07c7.24.85,14.49,1.65,21.75,2.21a180.39,180.39,0,0,0,22.42.51c3.81-.18,7.62-.53,11.4-1.07,2.95-.42,6.5-.63,9-2.47,2.88-2.15,2.64-6.13,2.92-9.35.35-3.8.66-7.6,1-11.4q.88-11.65,1.48-23.33t.87-23.36c.17-7,.65-14.07-.22-21-.78-6.17-3-12-7.74-16.18a41.08,41.08,0,0,0-8.26-5.4,33.62,33.62,0,0,0-7.86-3.08c-5-1.18-11.34-.68-14,4.39a10.49,10.49,0,0,0,2.65,12.48c4.12,3.42,9.81,2,12.92-2a9.42,9.42,0,0,0-1.41-13.28c-4-3.29-9.5-3.85-14.31-5.33-5.62-1.73-9.9-5.58-14.12-9.51C171.53,54,166.9,50.09,161,47.72c-6.1-2.45-12.77-3.28-19.3-3.48-6.81-.21-14-.23-20.26,2.77-6,2.86-11,7.55-16.55,11.08A97.31,97.31,0,0,1,67.6,72.22a82.28,82.28,0,0,1-19.46.57l1.45,1.11"/><path class="cls-2" d="M111.91,94.14a1.5,1.5,0,0,0,0-3,1.5,1.5,0,0,0,0,3Z"/><path class="cls-2" d="M67.89,183a29.42,29.42,0,0,0,15-3.36,29.2,29.2,0,0,0,12.55-8.07A29.2,29.2,0,0,0,103.53,159a29.4,29.4,0,0,0,3.36-15l-1.4-10.37a38.88,38.88,0,0,0-10-17.21l-7.89-6.1A38.75,38.75,0,0,0,67.89,105a29.33,29.33,0,0,0-15,3.35,29.29,29.29,0,0,0-12.55,8.07A29.35,29.35,0,0,0,32.24,129a29.33,29.33,0,0,0-3.35,15l1.39,10.36a38.83,38.83,0,0,0,10,17.21l7.89,6.1A38.9,38.9,0,0,0,67.89,183Z"/><path class="cls-2" d="M73.56,180.77l3.86.56,10.37-76.6-15.37.55a29.44,29.44,0,0,0-15,3.36,29.24,29.24,0,0,0-12.55,8.06l-6.1,7.9a29.05,29.05,0,0,0-4.63,14.5,19.79,19.79,0,0,0,0,10.36A29.09,29.09,0,0,0,38.74,164l6.1,7.89a39.07,39.07,0,0,0,17.21,10,56.72,56.72,0,0,0,8.3,2.21,164.42,164.42,0,0,0,18,2.34,117,117,0,0,0,16.85-.24c11.47-.85,22.91-2.56,34.45-2.17,11.77.4,23.5,2.53,35.3,1.68a131.69,131.69,0,0,0,18.56-2.55,44.64,44.64,0,0,0,12.25-4.88,42.15,42.15,0,0,0,8.67-6.78c4.67-4.6,9.12-12.06,10.58-18.46,2-9,1.6-18.45,1.7-27.66,0-3.32.11-6.65.09-10a48.83,48.83,0,0,0-2-14.65,46.29,46.29,0,0,0-11.54-19.63,56.87,56.87,0,0,0-8.89-7,10.35,10.35,0,0,0-1.61-.93c-1.67-.77-3.57-1.52-5.13-2.17s-3.62-1.65-5.47-2.27a15.16,15.16,0,0,0-1.87-.5C184.35,67,178.36,66.84,172.4,66l10.37,1.4a16.8,16.8,0,0,1-4.12-1.08L188,70.29a10.11,10.11,0,0,1-2-1.17l7.89,6.1a22.67,22.67,0,0,1-3.12-3.37,37.22,37.22,0,0,0-11.09-9c-3.52-1.84-7.27-3.76-11.21-4.56q-2.78-.42-5.56-.76c-1.84-.29-3.69-.54-5.55-.73-.45,0-.89,0-1.33,0a41.84,41.84,0,0,1-5.13,0l10.36,1.39a7.49,7.49,0,0,1-1.74-.48l9.32,3.94a6.92,6.92,0,0,1-1.14-.69l7.9,6.09a6.62,6.62,0,0,1-1-1l6.09,7.89A14.4,14.4,0,0,1,179.1,71L183,80.33c-1.58-3.78-3.12-7.58-4.77-11.33a15,15,0,0,0-1.14-2.12c-2-3-4.44-6.85-7.48-9.35l-7.89-6.1-.5-.32a42.8,42.8,0,0,0-10.41-4.38c-8.43-2.36-14.63-1.73-23-.13-4.21.8-8.34,3-12,4.77a46.14,46.14,0,0,0-5.52,3.32,156.72,156.72,0,0,1-24,12.71l9.32-3.93A157.4,157.4,0,0,1,58,74a29.51,29.51,0,0,0-13.26,7,29.51,29.51,0,0,0-10,11,28.94,28.94,0,0,0-4.62,14.5A29.6,29.6,0,0,0,30.78,122l3.93,9.31a39.29,39.29,0,0,0,14,14L58,149.24a39.45,39.45,0,0,0,20.74,0,156.38,156.38,0,0,0,27.88-6.86c7.54-2.61,14.91-5.77,22.17-9,4.41-2,8.72-4.16,12.93-6.53,2.29-1.3,4.55-2.65,6.77-4.07a51.38,51.38,0,0,1,7-4.2l-9.31,3.93a11.82,11.82,0,0,1,2.34-.67l-10.37,1.4a7.3,7.3,0,0,1,1.55,0l-10.37-1.4a7,7,0,0,1,1.49.42l-9.32-3.93a8,8,0,0,1,.86.5l-7.89-6.1a7,7,0,0,1,1.21,1.23l-6.1-7.89a14.58,14.58,0,0,1,1.55,2.92l-3.93-9.32c1.76,4.24,3.17,8.7,5.45,12.69a9.3,9.3,0,0,0,.64,1l6.1,7.89a4.11,4.11,0,0,0,.38.45,38.77,38.77,0,0,0,9.17,7.13,39.34,39.34,0,0,0,11.19,4.61c1.84.29,3.69.55,5.54.75s3.7.53,5.55.74c.44,0,.87,0,1.31,0a44.42,44.42,0,0,1,5.16,0l-10.37-1.4a8.51,8.51,0,0,1,1.8.47L139.84,130a8.36,8.36,0,0,1,1.47.87l-7.89-6.1a26.43,26.43,0,0,1,3.32,3.61,36.59,36.59,0,0,0,11.69,9.18,65.13,65.13,0,0,0,11.49,4.69c4.09,1,8.75,1.33,12.68,1.82,1.85.23,3.72.31,5.57.54l-10.37-1.39a18.31,18.31,0,0,1,4.43,1.1l-9.32-3.94a11.15,11.15,0,0,1,2.35,1.34l-7.9-6.1a9.16,9.16,0,0,1,1.18,1.15l-6.1-7.89a7.56,7.56,0,0,1,.91,1.52l-3.93-9.32a10.1,10.1,0,0,1,.57,2.07l-1.4-10.36a48.54,48.54,0,0,1,.12,6.93l-.07,7.63-.08,7.38c0,2.44.08,4.92-.11,7.36l1.39-10.37a6.39,6.39,0,0,1-.26,1.15l3.93-9.31a2.47,2.47,0,0,1-.38.67l6.1-7.89a2.53,2.53,0,0,1-.49.49l7.89-6.1a5.19,5.19,0,0,1-.92.52l9.32-3.93a32,32,0,0,1-6.5,1.37l10.36-1.4c-12.7,1.69-25.4-.67-38.09-1.21-12.25-.53-24.38,1.33-36.57,2.19a102.24,102.24,0,0,1-20.4-.29l10.36,1.4a58.75,58.75,0,0,1-11.4-2.71L72.42,183.28l15.37-.55a29.44,29.44,0,0,0,15-3.36,29.32,29.32,0,0,0,12.55-8.07l6.1-7.89a29,29,0,0,0,4.62-14.5,19.62,19.62,0,0,0,0-10.37,29,29,0,0,0-4.62-14.5l-6.1-7.89a39,39,0,0,0-17.21-10l-3.87-.57a29.6,29.6,0,0,0-15.55-.7,29.08,29.08,0,0,0-14.5,4.63,29.48,29.48,0,0,0-10.94,10,29.36,29.36,0,0,0-7,13.26l-1.39,10.37a38.75,38.75,0,0,0,5.32,19.68l6.1,7.9a39.07,39.07,0,0,0,17.21,10Z"/><path class="cls-2" d="M52.09,92.94c.24-.64.49-1.28.75-1.91l-.91,2.15a14.4,14.4,0,0,1,1.73-3.09l-1.41,1.82a7.9,7.9,0,0,1,1.35-1.36L51.78,92a6.81,6.81,0,0,1,1.52-.89L51.15,92a5.85,5.85,0,0,1,1.3-.37l-2.39.33a4.61,4.61,0,0,1,1.23,0L48.9,91.6l.12,0a7,7,0,0,0,3.59.16,8,8,0,0,0,5.87-3.39,6.66,6.66,0,0,0,1.61-3.06l.33-2.39a9,9,0,0,0-1.23-4.54l-1.41-1.83a9.06,9.06,0,0,0-4-2.31,23.14,23.14,0,0,0-3-.38,12.26,12.26,0,0,0-1.93.21,12.87,12.87,0,0,0-1.86.3,14.26,14.26,0,0,0-1.72.67,11.88,11.88,0,0,0-2.39,1.2A20.52,20.52,0,0,0,40,78.58,18.83,18.83,0,0,0,36.91,83a53.67,53.67,0,0,0-2.18,5.19,6.85,6.85,0,0,0-.16,3.59,6.73,6.73,0,0,0,1.07,3.34A6.81,6.81,0,0,0,38,97.62,6.85,6.85,0,0,0,41,99.23l2.39.32A9,9,0,0,0,48,98.32l1.82-1.41a8.93,8.93,0,0,0,2.32-4Z"/><path class="cls-2" d="M30.35,115.58a121.35,121.35,0,0,1-.54,20.88h18a73.47,73.47,0,0,1,.61-9.37l-.32,2.4A73.77,73.77,0,0,1,50.6,118l-17.68-2.39-2.38,34.89,17.68-2.39-.82-2.58a9,9,0,0,0-17.68,2.39l-.38,12h18Q46.9,153.51,47,147c.08-4.71-4.2-9.21-9-9a9.09,9.09,0,0,0-6.36,2.64l-1.41,1.82A9,9,0,0,0,29,147a87.61,87.61,0,0,0-.49,16.9c.24,3.38.67,6.75,1.21,10.09a38.92,38.92,0,0,0,.72,3.85,11.78,11.78,0,0,0,4.38,6.52c3.24,2.51,7.36,2.85,11.32,3.12a45.8,45.8,0,0,0,8.11-.24,164.18,164.18,0,0,0,18-3.29,59.08,59.08,0,0,0,17.53-6.63c4-2.45,5.89-8.17,3.23-12.31s-8-5.85-12.32-3.23a37.32,37.32,0,0,1-5,2.55l2.15-.91A71,71,0,0,1,66,167c-4.35,1-8.72,1.91-13.14,2.51l2.39-.32a46.77,46.77,0,0,1-11.88.07l2.39.33a10.37,10.37,0,0,1-2.46-.58l2.15.91a3.42,3.42,0,0,1-.59-.33L46.65,171a2.91,2.91,0,0,1-.49-.44l1.41,1.83a2.76,2.76,0,0,1-.38-.58l.91,2.15c-.9-2.15-1.05-4.79-1.36-7.08l.32,2.39A88.2,88.2,0,0,1,47,147H29q-.12,6.47.32,12.92A9.6,9.6,0,0,0,32,166.32,9,9,0,0,0,47.34,160l.38-12L30,150.33l.82,2.58a9,9,0,0,0,9.88,6.45c4.59-.62,7.49-4.32,7.8-8.84l2.38-34.89a9,9,0,0,0-2.64-6.36,9.2,9.2,0,0,0-5.17-2.48,9,9,0,0,0-9.87,6.45,80.78,80.78,0,0,0-3.43,23.22c0,4.71,4.14,9.22,9,9a9.1,9.1,0,0,0,6.36-2.63L46.58,141a9.08,9.08,0,0,0,1.23-4.55,121.35,121.35,0,0,0,.54-20.88,9.49,9.49,0,0,0-2.63-6.36,9.13,9.13,0,0,0-6.37-2.64c-4.63.21-9.3,4-9,9Z"/><path class="cls-2" d="M159.48,69.87c.41-.1.79-.19,1.21-.25l-2.4.32a10.7,10.7,0,0,1,2,0l-2.4-.32a12.15,12.15,0,0,1,2.8.73l-2.15-.9a16.82,16.82,0,0,1,3.63,2.14l-1.82-1.4c2.76,2.17,5.12,4.81,7.85,7a67.49,67.49,0,0,0,10.08,6.93,68.23,68.23,0,0,0,11.07,4.78,25.23,25.23,0,0,0,7.2,1.33c2.59.07,5.1-.71,7.64-1.13l-2.4.32a10.31,10.31,0,0,1,2.15-.06l-2.39-.32a10.54,10.54,0,0,1,2.41.62l-2.15-.91a17.36,17.36,0,0,1,3.58,2.15l-1.82-1.41a24.63,24.63,0,0,1,3.92,3.92l-1.4-1.82a24.63,24.63,0,0,1,3,5.11l-.91-2.15a28.45,28.45,0,0,1,1.89,7.26l-.32-2.4a132.12,132.12,0,0,1,.69,13.64,89.73,89.73,0,0,1-.3,13.42l.32-2.39a26.65,26.65,0,0,1-1.73,6.57l.91-2.15a60.5,60.5,0,0,1-5.64,9.6c-1.86,2.78-3.76,5.53-5.79,8.18l1.4-1.82a57,57,0,0,1-9.93,10.31l1.83-1.41a34.36,34.36,0,0,1-7.19,4.27l2.15-.91c-3.29,1.37-6.74,2.19-10,3.68a12.94,12.94,0,0,0-7.82,12c.2,8.25,7.38,13.89,15,15,6.44,1,13,.84,19.52,1.06a38.06,38.06,0,0,0,9.94-.47,13.85,13.85,0,0,0,10.07-9.25,23.79,23.79,0,0,0,.82-4.28c.36-2.32.69-4.65.95-7a46.29,46.29,0,0,0,.24-9.19c-.45-5-1.48-9.45-4.74-13.44-2.09-2.55-5.06-4.49-7.66-6.44a109.65,109.65,0,0,0-14.67-9.25c-2.63-1.37-5.32-2.63-8-3.8a43.09,43.09,0,0,0-5.36-2.09,24.47,24.47,0,0,0-6.61-.73c-7.19.08-14.39.37-21.59.56a78.59,78.59,0,0,0-11.26.74c-4.08.71-8.38,3.36-10.2,7.18a9.69,9.69,0,0,0-.91,6.94,9,9,0,0,0,11.07,6.29c2.12-.69,4.38-2.05,5.38-4.14a6.48,6.48,0,0,1,.46-.81l-1.41,1.82a6.14,6.14,0,0,1,.84-.85l-1.82,1.4a7.27,7.27,0,0,1,1.33-.76l-2.15.91a12.24,12.24,0,0,1,2.86-.72l-2.39.32c2.39-.28,4.82-.23,7.22-.29l8.59-.23,8.35-.22a58,58,0,0,1,8.54,0l-2.39-.33a20.74,20.74,0,0,1,4.52,1.46l-2.15-.9a109.73,109.73,0,0,1,24.13,14.12l-1.82-1.41a24.5,24.5,0,0,1,4.42,4l-1.41-1.82a10.33,10.33,0,0,1,1,1.84l-.91-2.15a17,17,0,0,1,.91,3.79l-.32-2.39a48.47,48.47,0,0,1-.31,12.56l.32-2.39c-.32,2.38-.43,5.1-1.37,7.33l.91-2.15a4,4,0,0,1-.39.66l1.41-1.82a5.41,5.41,0,0,1-.89.9l1.82-1.41a6.52,6.52,0,0,1-1.09.62l2.15-.91a9.86,9.86,0,0,1-2.26.57l2.39-.32c-3.93.43-8-.08-12-.21s-7.82-.06-11.67-.56l2.39.32a17.16,17.16,0,0,1-3.93-1l2.15.9a10.43,10.43,0,0,1-2-1.09l1.83,1.41a8.56,8.56,0,0,1-1.36-1.33l1.41,1.82a7.09,7.09,0,0,1-.85-1.49l.9,2.15a8.3,8.3,0,0,1-.28-1.09l.32,2.4a5.89,5.89,0,0,1,0-1.11l-.33,2.39a5.4,5.4,0,0,1,.27-1l-.91,2.15a3.55,3.55,0,0,1,.36-.63l-1.41,1.82a5.74,5.74,0,0,1,.87-.84l-1.82,1.4a13.71,13.71,0,0,1,2.28-1.19l-2.15.91c2-.79,4-1.3,6-2a45.17,45.17,0,0,0,6.66-3,48,48,0,0,0,10-7.69c5.74-5.67,10.31-12.5,14.72-19.21a41.89,41.89,0,0,0,6.12-13A60.17,60.17,0,0,0,228.59,117c-.05-4.55-.14-9.12-.41-13.66a67.08,67.08,0,0,0-1-8.37,34.72,34.72,0,0,0-2.55-7.54A31.71,31.71,0,0,0,214.2,75.15a18,18,0,0,0-7.83-3.44,20.45,20.45,0,0,0-7.15.1c-1.23.21-2.45.54-3.69.72l2.39-.33a11.27,11.27,0,0,1-2.66-.06l2.39.32a33.61,33.61,0,0,1-7.44-2.38l2.15.91A56.33,56.33,0,0,1,180,63.74l1.82,1.41c-3.66-2.86-6.78-6.3-10.5-9.09a19.56,19.56,0,0,0-16.6-3.54c-4.55,1.21-7.78,6.47-6.29,11.07a9.17,9.17,0,0,0,11.07,6.28Z"/><path class="cls-2" d="M33.09,115.81c-.94,1.92-1.93,3.83-2.78,5.8A29.28,29.28,0,0,0,27.7,131c-.59,6.41,3,11.86,8,15.41a30.52,30.52,0,0,0,6.14,3c1.9.79,3.85,1.47,5.8,2.12a108.64,108.64,0,0,0,12.42,3.29A127.77,127.77,0,0,0,76.38,157a9,9,0,0,0,9-9c-.23-5.17-4-8.65-9-9q-3.5-.25-7-.72l2.39.32A102,102,0,0,1,46.49,132l2.15.9a20.08,20.08,0,0,1-4.11-2.27l1.82,1.4a11.19,11.19,0,0,1-1.74-1.7L46,132.15a8.78,8.78,0,0,1-1.06-1.8l.91,2.15a10.08,10.08,0,0,1-.45-1.63l.32,2.39a10.46,10.46,0,0,1,0-2.5l-.32,2.39a19,19,0,0,1,1.36-4.6l-.91,2.15c.85-2,1.84-3.88,2.79-5.81a9.6,9.6,0,0,0,.9-6.93,9.18,9.18,0,0,0-4.13-5.38c-4.06-2.14-10.1-1.28-12.32,3.23Z"/><path class="cls-2" d="M86.44,183.4c7.76,2.29,15.48,4.32,23.57,5.12,7.28.72,14.65.48,22,.48H154.3c7.45,0,15,.35,22.43-.17a41.16,41.16,0,0,0,12.53-2.49c4.31-1.73,8.47-4.08,11.43-7.77,1.54-1.93,2.63-3.79,2.63-6.36a9.16,9.16,0,0,0-2.63-6.36,9,9,0,0,0-6.37-2.64c-2.23.1-4.9.81-6.36,2.64a18.61,18.61,0,0,1-2.74,2.73l1.82-1.41a21.46,21.46,0,0,1-4.71,2.72l2.15-.9a30,30,0,0,1-7.34,1.88l2.39-.32A107.78,107.78,0,0,1,166,171H123.31a119.21,119.21,0,0,1-15.7-.76l2.39.32A127.73,127.73,0,0,1,91.22,166c-4.51-1.33-10,1.61-11.07,6.29a9.18,9.18,0,0,0,6.29,11.07Z"/><path class="cls-2" d="M48.37,184.14c5.35.38,10.8.12,16.11.79l-2.39-.32c4.31.62,8.54,1.75,12.86,2.4a149.1,149.1,0,0,0,15,1.6,139.92,139.92,0,0,0,28-1.6l-4.79-17.36c-3.7.69-7.41,1.32-11.14,1.83l2.39-.32a99.41,99.41,0,0,1-26.3.36l2.39.32a133.89,133.89,0,0,0-16.95-1.5c-5,0-10.06.22-15-.34l2.4.33a10.69,10.69,0,0,1-2.49-.62l2.15.91a7,7,0,0,1-1-.57l1.82,1.41a5.73,5.73,0,0,1-1-1l1.41,1.82a3.37,3.37,0,0,1-.36-.61l.9,2.15a4.4,4.4,0,0,1-.29-1l.32,2.39a2.73,2.73,0,0,1,0-.7l-.33,2.39a3.14,3.14,0,0,1,.17-.67l-.91,2.15a4.68,4.68,0,0,1,.5-.9l-1.41,1.82a5.82,5.82,0,0,1,.74-.75l-1.82,1.4a6.92,6.92,0,0,1,1.23-.74l-2.15.91a8,8,0,0,1,1.54-.42l-2.4.33c2.63-.32,5.28.22,7.92,0a33.81,33.81,0,0,0,8.57-1.62c6-2.13,11.64-5.9,14.69-11.68a29,29,0,0,0,3-9.86c.51-3.77.93-7.55,1.18-11.35a123.12,123.12,0,0,0,0-18.62,24.91,24.91,0,0,0-1.19-6.53,22.51,22.51,0,0,0-3.94-6.72c-1.62-2-3.61-3.66-5.2-5.68l1.41,1.82a12.25,12.25,0,0,1-1.42-2.35l.91,2.15-.13-.32c-.92-2.27-2-4.1-4.14-5.38a9.18,9.18,0,0,0-6.93-.91A9.06,9.06,0,0,0,57,107.12c-1.06,2-1.8,4.74-.91,6.93a21.78,21.78,0,0,0,2,4.27,36.07,36.07,0,0,0,3,3.83c1.32,1.41,2.75,2.72,4,4.23l-1.41-1.82a12.84,12.84,0,0,1,1.62,2.74l-.91-2.15a14.92,14.92,0,0,1,.73,2.87l-.32-2.39a90.52,90.52,0,0,1,.38,14.26,145.5,145.5,0,0,1-1.12,14.59l.32-2.4a27.06,27.06,0,0,1-1.57,6.59l.9-2.15A15.31,15.31,0,0,1,62,159.65l1.41-1.82a17,17,0,0,1-2.62,2.61L62.58,159a19.62,19.62,0,0,1-4.12,2.42l2.15-.91a24.61,24.61,0,0,1-6.07,1.66l2.39-.32a29.38,29.38,0,0,1-5.78.13c-3.52-.23-7.16.11-10.26,2a12.45,12.45,0,0,0,.49,22.08c5.48,2.8,12.32,2.29,18.32,2.27a114.79,114.79,0,0,1,15.62.79l-2.4-.32c4,.54,8,1.16,12,1.37a89.72,89.72,0,0,0,10.5-.1A192.87,192.87,0,0,0,118,187a9.06,9.06,0,0,0,5.37-4.14,9,9,0,0,0-3.22-12.31l-2.15-.91a9.26,9.26,0,0,0-4.79,0c-.79.12-1.58.24-2.38.34l2.39-.32a129.33,129.33,0,0,1-33.53,0l2.39.32c-6-.8-11.86-2.37-17.87-3.09-5.24-.63-10.6-.38-15.87-.76a9,9,0,0,0-9,9c.24,5.16,4,8.64,9,9Z"/></g><path d="M138.5,164a107.24,107.24,0,0,0,19.9-3.54c8.08-2.4,16.26-6.33,21.62-13.05,6.86-8.59,7.77-20.6,5.67-31.07a47.91,47.91,0,0,0-19.41-29.68c-10-7.06-22.47-10.44-34.65-10.49-13.12-.06-26.7,3.71-36.59,12.64a40.57,40.57,0,0,0-10.3,14.44c-2.43,5.84-3,12.25-3.06,18.52a51.25,51.25,0,0,0,3.16,19.28,50.69,50.69,0,0,0,11,16.49A76.84,76.84,0,0,0,111,170.09a60.23,60.23,0,0,0,17.19,6.64,158.74,158.74,0,0,0,18.53,3.07c7.24.85,14.49,1.65,21.75,2.21a182.35,182.35,0,0,0,22.42.51c3.81-.18,7.62-.53,11.4-1.07,2.95-.42,6.5-.63,9-2.47,2.88-2.15,2.64-6.14,2.92-9.36.35-3.79.66-7.59,1-11.39q.88-11.65,1.48-23.33t.87-23.36c.17-7,.65-14.08-.22-21-.78-6.17-3-12-7.74-16.17A41.56,41.56,0,0,0,201.31,69a34.52,34.52,0,0,0-7.86-3.08c-5-1.18-11.34-.67-14,4.4a10.47,10.47,0,0,0,2.65,12.47c4.12,3.43,9.81,2,12.92-2a9.41,9.41,0,0,0-1.41-13.27c-4-3.3-9.5-3.85-14.31-5.33-5.62-1.74-9.9-5.59-14.12-9.52C160.53,48.32,155.9,44.4,150,42c-6.1-2.45-12.77-3.29-19.3-3.48-6.81-.21-14-.23-20.26,2.77-6,2.85-11,7.55-16.55,11.07A97.16,97.16,0,0,1,56.6,66.53a83.36,83.36,0,0,1-19.46.57l1.45,1.1a16.16,16.16,0,0,1-1.32-5.36c0-1.83,1.39-2.11,3-2.41a52.82,52.82,0,0,1,10.67-.63,12.65,12.65,0,0,1,4.89.66c1.05.48.68,1.17,0,1.9-2.16,2.34-5.89,3.75-9,4.12-4.42.52-8.93.33-13.29,1.35a14.88,14.88,0,0,0-10.26,7.91,25.94,25.94,0,0,0-2.09,7q-.78,4.23-1.49,8.46-1.29,7.6-2.29,15.25A306,306,0,0,0,15,155.28c.12,4.23,0,8.61.78,12.78A14.77,14.77,0,0,0,22,177.65a22.83,22.83,0,0,0,10,3.4,76.67,76.67,0,0,0,13.12.33c8.25-.32,16.5-1,24.76-1.2,8.59-.25,17.18-.15,25.77.17,2.8.1,5.6.23,8.4.37,1.93.1,1.93-2.9,0-3-9.73-.49-19.48-.79-29.23-.65-7.83.12-15.65.55-23.47,1-4.86.28-9.73.57-14.59.37-3.71-.14-7.63-.53-11-2.1a12,12,0,0,1-6.82-8,35.19,35.19,0,0,1-.7-7.24q-.12-2.91-.2-5.82a305.76,305.76,0,0,1,2.48-49.88c.72-5.34,1.56-10.66,2.48-16,.86-5,1.19-11,4.68-15,6-6.76,16.48-3.16,24-6.16,2.81-1.12,7-3.06,7.68-6.38.83-4-4-4.83-6.82-5a63.17,63.17,0,0,0-10.74.32,13,13,0,0,0-5.57,1.45,5,5,0,0,0-2,4.81A21.42,21.42,0,0,0,35.69,69a1.58,1.58,0,0,0,1.45,1.1,89.22,89.22,0,0,0,37-4.86,103.16,103.16,0,0,0,17.15-7.82c5.48-3.12,10.38-7,15.57-10.53a29.1,29.1,0,0,1,8.27-4.21,38.49,38.49,0,0,1,10-1.16,72,72,0,0,1,18.46,1.63,36.88,36.88,0,0,1,15.64,8.19c4.23,3.69,8.08,7.91,12.89,10.87,4.45,2.74,9.47,3.46,14.36,5,4,1.26,8.73,4.11,7.39,9-1.09,4-5.92,7.25-9.69,4.42-3.09-2.31-4.06-7.52-1.15-10.33,3.72-3.6,9.91-1.85,14.07-.07,5.26,2.26,10.92,5.52,14,10.53s3.54,11.25,3.59,17c0,7-.19,14.1-.42,21.14q-.7,21.87-2.5,43.69c-.29,3.6-.53,7.22-.95,10.81-.17,1.41-.5,2.63-1.81,3.36a13,13,0,0,1-4.2,1.16,119.79,119.79,0,0,1-21.15,1.65c-13.62,0-27.3-1.57-40.79-3.35-11.29-1.49-23.26-3.71-32.74-10.39-10-7.06-19.68-16.46-23.42-28.45a53.21,53.21,0,0,1-2-18.28c.27-5.93,1.07-11.69,3.78-17C99.78,79.81,129.4,75,151.27,82.42c10.86,3.7,20.53,10.79,26.31,20.81,5.68,9.85,7.71,22.09,4.76,33.15-4.24,15.86-22,21.54-36.41,23.73-2.47.37-5,.64-7.43.89-1.9.19-1.92,3.19,0,3Z"/></svg>
