<svg id="Layer_1" data-name="Layer 1" xmlns="http://www.w3.org/2000/svg" viewBox="0 0 163 205"><title>documentation_icon</title><path d="M92.71,67.31a1.51,1.51,0,0,1-1.5-1.49L91,22.41a1.49,1.49,0,0,1,1.49-1.51h0A1.5,1.5,0,0,1,94,22.39l.24,43.41a1.5,1.5,0,0,1-1.49,1.51Z"/><rect x="92.71" y="64.31" width="54.81" height="3"/><path d="M147.52,67.31a1.48,1.48,0,0,1-1.17-.56L102.5,11.94a1.5,1.5,0,0,1,2.34-1.88l43.85,54.81a1.5,1.5,0,0,1-1.17,2.44Z"/><path d="M103.67,12.5H10.5a1.5,1.5,0,0,1,0-3h93.17a1.5,1.5,0,0,1,0,3Z"/><rect x="9" y="11" width="3" height="183.61"/><path d="M153,196.11H10.5a1.5,1.5,0,0,1,0-3H153a1.5,1.5,0,0,1,0,3Z"/><path d="M153,195.72a1.5,1.5,0,0,1-1.5-1.5V81.87a1.5,1.5,0,0,1,3,0V194.22A1.5,1.5,0,0,1,153,195.72Z"/></svg>
