<svg id="Layer_1" data-name="Layer 1" xmlns="http://www.w3.org/2000/svg" viewBox="0 0 201 140"><title>email_icon</title><path d="M42.23,34.31c9.75,7.2,19.46,14.47,29.26,21.6,8.27,6,17.34,12,27.68,13.51C110,71,120,66.54,129.23,61.25c10.45-6,20.75-12.27,31.12-18.41l8-4.72a58.76,58.76,0,0,0,6.55-4.26c3.31-2.62,6.83-6.51,6.38-11.06s-4.17-7.09-8.25-8c-5-1.14-10.41-.72-15.51-.78q-36.7-.42-73.43-.23-18.36.09-36.71.34c-5.26.07-10.59-.11-15.8.67-4.34.64-8.74,2.27-11.59,5.77-3.14,3.85-3.84,8.91-4.14,13.72-.38,6-.53,12-.6,18a337.22,337.22,0,0,0,1.2,35.4c.8,8.38,2.81,17.87,10.37,22.8,4.35,2.83,9.72,3.38,14.78,3.57,5.76.21,11.54.29,17.3.43,21.64.53,43.29,1,64.93.71q17-.24,34-1.09c3.38-.17,6.75-.33,10.12-.6,3.12-.25,6.65-.32,9.62-1.43,7.73-2.88,7.43-13.54,7.46-20.23.05-11.62.25-23.23.19-34.85q0-8.76-.17-17.53c0-1.93-3-1.93-3,0,.16,11.56.24,23.12.17,34.68,0,5.52-.14,11-.18,16.57,0,3.82.11,7.73-.7,11.48a12.35,12.35,0,0,1-2,4.88,7,7,0,0,1-1.5,1.48,4.43,4.43,0,0,1-1.61.81,44.16,44.16,0,0,1-9.31,1.22c-8.94.66-17.92,1-26.87,1.24-20.6.64-41.2.52-61.79.1-10.93-.22-21.86-.5-32.79-.77-5-.12-10.29,0-14.93-2.08a16.44,16.44,0,0,1-8.22-8.75,40.46,40.46,0,0,1-2.79-12.1c-.55-5.42-.77-10.89-1-16.33q-.66-17.49.19-35c.22-4.58.32-9.67,2.95-13.63,2.45-3.7,6.88-5.14,11.07-5.69C37.76,17,43,17.16,48.08,17.1q8.74-.12,17.49-.2,35.21-.33,70.43-.09,8.75.06,17.49.15c5.31.06,10.74-.17,16,.3,3.53.32,8.25,1.53,8.73,5.74s-4.17,7.92-7.28,10c-4.67,3.11-9.68,5.79-14.51,8.65l-15.05,8.92c-4.88,2.89-9.73,5.85-14.66,8.64a64.3,64.3,0,0,1-14.26,6.34,31,31,0,0,1-14.77.58,46.85,46.85,0,0,1-13.61-5.46,132.61,132.61,0,0,1-12.67-8.49c-4.7-3.45-9.38-6.93-14.08-10.39L43.75,31.72c-1.56-1.14-3.06,1.46-1.52,2.59Z"/></svg>
