<svg id="Layer_1" data-name="Layer 1" xmlns="http://www.w3.org/2000/svg" viewBox="0 0 377 270"><title>laptop_icon</title><path d="M78,177.86a2.4,2.4,0,0,1-2.4-2.4V46.24a2.4,2.4,0,1,1,4.8,0V175.46A2.4,2.4,0,0,1,78,177.86Z"/><path d="M310.6,48.64H78a2.4,2.4,0,0,1,0-4.8H310.6a2.4,2.4,0,1,1,0,4.8Z"/><path d="M310.6,195.09a2.41,2.41,0,0,1-2.4-2.4V46.24a2.41,2.41,0,0,1,4.81,0V192.69A2.41,2.41,0,0,1,310.6,195.09Z"/><rect x="56.48" y="190.28" width="254.13" height="4.81"/><path d="M56.48,195.09a2.41,2.41,0,0,1-2.41-2.4V29a2.41,2.41,0,0,1,4.81,0V192.69A2.41,2.41,0,0,1,56.48,195.09Z"/><rect x="56.48" y="26.61" width="275.66" height="4.81"/><path d="M332.14,216.62a2.39,2.39,0,0,1-2.4-2.4V29a2.4,2.4,0,0,1,4.8,0V214.22A2.39,2.39,0,0,1,332.14,216.62Z"/><rect x="191.9" y="74.22" width="4.81" height="275.7" transform="translate(-20.77 403.04) rotate(-89.11)"/><path d="M13.4,259.7a2.41,2.41,0,0,1-1.78-4L54.7,208.3a2.4,2.4,0,0,1,3.55,3.23L15.18,258.91A2.41,2.41,0,0,1,13.4,259.7Z"/><rect x="13.4" y="254.89" width="353.19" height="4.81"/><path d="M366.6,259.7a2.39,2.39,0,0,1-1.7-.71l-34.46-34.45a2.4,2.4,0,1,1,3.4-3.4L368.3,255.6a2.41,2.41,0,0,1-1.7,4.1Z"/></svg>
