<svg id="Layer_1" data-name="Layer 1" xmlns="http://www.w3.org/2000/svg" viewBox="0 0 246 159"><defs><style>.cls-1{fill:#8d1481;opacity:0.58;}</style></defs><title>laptop_icon</title><path class="cls-1" d="M240.06,153.12l-6.89-6.9L219,127.31V11.66a1.5,1.5,0,0,0-1.5-1.5H216V10H44v1.1a1.47,1.47,0,0,0-.11.56V113.84a1.47,1.47,0,0,0,.11.56v9.5L17.39,153.17a1.5,1.5,0,0,0,1.11,2.51H239a1.51,1.51,0,0,0,1.06-.44A1.49,1.49,0,0,0,240.06,153.12Zm-217.81-.45H21.9l2.27-2.5Z"/><path d="M47.83,98.58a1.5,1.5,0,0,1-1.5-1.5V16.42a1.5,1.5,0,0,1,3,0V97.08A1.5,1.5,0,0,1,47.83,98.58Z"/><path d="M193,17.92H47.83a1.5,1.5,0,1,1,0-3H193a1.5,1.5,0,0,1,0,3Z"/><path d="M193,109.34a1.5,1.5,0,0,1-1.5-1.5V16.42a1.5,1.5,0,1,1,3,0v91.42A1.5,1.5,0,0,1,193,109.34Z"/><rect x="34.39" y="106.34" width="158.65" height="3"/><path d="M34.39,109.34a1.5,1.5,0,0,1-1.5-1.5V5.66a1.5,1.5,0,1,1,3,0V107.84A1.5,1.5,0,0,1,34.39,109.34Z"/><rect x="34.39" y="4.16" width="172.1" height="3"/><path d="M206.49,122.79a1.5,1.5,0,0,1-1.5-1.5V5.66a1.5,1.5,0,1,1,3,0V121.29A1.5,1.5,0,0,1,206.49,122.79Z"/><rect x="118.94" y="33.88" width="3" height="172.12" transform="translate(-1.37 238.49) rotate(-89.11)"/><path d="M7.5,149.68a1.5,1.5,0,0,1-1.11-2.51l26.89-29.58a1.5,1.5,0,1,1,2.22,2L8.61,149.19A1.52,1.52,0,0,1,7.5,149.68Z"/><rect x="7.5" y="146.67" width="220.5" height="3"/><path d="M228,149.68a1.51,1.51,0,0,1-1.06-.44l-21.51-21.51a1.5,1.5,0,1,1,2.12-2.13l21.51,21.52a1.49,1.49,0,0,1,0,2.12A1.51,1.51,0,0,1,228,149.68Z"/></svg>
