<svg id="Layer_1" data-name="Layer 1" xmlns="http://www.w3.org/2000/svg" viewBox="0 0 175 205"><title>mobil_icon</title><path d="M124.5,33.29H53.42a1.88,1.88,0,1,1,0-3.75H124.5a1.88,1.88,0,0,1,0,3.75Z"/><rect x="51.54" y="31.42" width="3.75" height="129.8"/><path d="M124.5,147.64a1.87,1.87,0,0,1-1.87-1.87V31.42a1.87,1.87,0,1,1,3.74,0V145.77A1.87,1.87,0,0,1,124.5,147.64Z"/><path d="M140,163.09H53.42a1.87,1.87,0,1,1,0-3.74H140a1.87,1.87,0,1,1,0,3.74Z"/><path d="M140,14.75H34.87a1.88,1.88,0,0,1,0-3.75H140a1.88,1.88,0,1,1,0,3.75Z"/><rect x="138.08" y="12.87" width="3.75" height="148.35"/><rect x="33" y="12.87" width="3.75" height="179.25"/><path d="M140,194H34.87a1.88,1.88,0,0,1,0-3.75H140a1.88,1.88,0,1,1,0,3.75Z"/><path d="M140,194a1.87,1.87,0,0,1-1.87-1.87V170.49a1.88,1.88,0,0,1,3.75,0v21.64A1.88,1.88,0,0,1,140,194Z"/><path d="M93.59,181.64a11.15,11.15,0,1,1,11.15-11.15A11.16,11.16,0,0,1,93.59,181.64Zm0-18.55a7.4,7.4,0,1,0,7.4,7.4A7.41,7.41,0,0,0,93.59,163.09Z"/></svg>
