<svg id="Layer_1" data-name="Layer 1" xmlns="http://www.w3.org/2000/svg" viewBox="0 0 101 164"><title>mobil_icon</title><path d="M78.25,27.34H21.34a1.5,1.5,0,0,1,0-3H78.25a1.5,1.5,0,0,1,0,3Z"/><rect x="19.84" y="25.84" width="3" height="103.91"/><path d="M78.25,118.89a1.5,1.5,0,0,1-1.5-1.5V25.84a1.5,1.5,0,0,1,3,0v91.55A1.5,1.5,0,0,1,78.25,118.89Z"/><path d="M90.62,131.26H21.34a1.5,1.5,0,0,1,0-3H90.62a1.5,1.5,0,0,1,0,3Z"/><path d="M90.62,12.5H6.5a1.5,1.5,0,0,1,0-3H90.62a1.5,1.5,0,0,1,0,3Z"/><rect x="89.12" y="11" width="3" height="118.76"/><rect x="5" y="11" width="3" height="143.5"/><path d="M90.62,156H6.5a1.5,1.5,0,0,1,0-3H90.62a1.5,1.5,0,0,1,0,3Z"/><path d="M90.62,156a1.5,1.5,0,0,1-1.5-1.5V137.18a1.5,1.5,0,0,1,3,0V154.5A1.5,1.5,0,0,1,90.62,156Z"/><path d="M53.51,146.1a8.92,8.92,0,1,1,8.92-8.92A8.93,8.93,0,0,1,53.51,146.1Zm0-14.84a5.92,5.92,0,1,0,5.92,5.92A5.93,5.93,0,0,0,53.51,131.26Z"/></svg>
