<svg id="Layer_1" data-name="Layer 1" xmlns="http://www.w3.org/2000/svg" viewBox="0 0 101 169"><title>mouse_icon</title><path d="M70.54,4.05C63.92-.4,54.17,1.15,49.37,7.55S45.83,23.84,52,29c3,2.52,7.16,4.31,9.06,7.92s.33,8.15-2,11.25c-2.83,3.76-7.17,5.93-11.28,8a52,52,0,0,0-11.47,7.19C24,74.28,20.78,92.21,20.6,107.93c-.21,18.16,2.63,39.12,18.56,50.46,7.07,5,16.13,7.24,24.54,4.51,8.24-2.67,14.85-9.24,18.86-16.78,4.78-9,6.38-19.24,7.39-29.26.9-8.88,1.14-18.32-2-26.83A28.54,28.54,0,0,0,71.12,72.75,29.2,29.2,0,0,0,47.47,74,30.85,30.85,0,0,0,32.6,92.73a28.26,28.26,0,0,0-.8,12.53c.79,4.43,4.68,6.89,8.81,7.87,7,1.67,14.85-1.09,19.66-6.4s6.67-13.93,1.49-19.67A7.58,7.58,0,0,0,51.68,85.9a11.61,11.61,0,0,0-4.56,10.74,17.14,17.14,0,0,0,5.35,10.47,21.17,21.17,0,0,0,12.17,5.33A41.55,41.55,0,0,0,78.9,111.3c1.88-.43,1.08-3.32-.8-2.89-8,1.84-18,2.44-24.14-4a13.29,13.29,0,0,1-3.89-9.75c.19-3.27,2.64-7.46,6.39-7.15,3.12.26,4.77,3.65,5.27,6.36a12.49,12.49,0,0,1-2.21,9,18,18,0,0,1-16.41,7.69c-3.42-.36-7.54-2-8.34-5.65a24,24,0,0,1,.72-11.36A27.84,27.84,0,0,1,49,76.57a26.31,26.31,0,0,1,21.18-1A25.41,25.41,0,0,1,85.28,91.37c2.72,7.83,2.53,16.36,1.77,24.5-.86,9.13-2.21,18.58-6.18,26.94-3.35,7.07-8.87,13.5-16.22,16.56s-15.67,1.72-22.4-2.52c-15.35-9.66-18.39-29-18.64-45.7-.23-14.26,1.66-30.5,11.12-41.87A33.39,33.39,0,0,1,43.14,62c3.74-2.26,7.81-3.91,11.53-6.19C60.88,52,67.28,44.35,64.19,36.56c-1.42-3.59-4.58-5.77-7.63-7.9s-5.59-4.4-6.63-8A13.31,13.31,0,0,1,51,10.49a12.15,12.15,0,0,1,8.37-5.75A12.82,12.82,0,0,1,69,6.64c1.61,1.08,3.11-1.51,1.52-2.59Z"/></svg>
