<svg id="Layer_1" data-name="Layer 1" xmlns="http://www.w3.org/2000/svg" viewBox="0 0 236 226"><defs><style>.cls-1{opacity:0.55;}.cls-2{fill:#f98a36;}.cls-3{fill:#050000;}</style></defs><title>ui_icon</title><g class="cls-1"><path class="cls-2" d="M47.35,107.27c-7.71,2.11-13.36-7-12.87-13.71C34.81,89,36.9,84.79,39.33,81c2.58-4,5.62-7.72,8.54-11.49l5-6.4c1.47-1.89,2.85-4.22,4.69-5.76,3.06-2.57,7.08.59,9.76,2.24,3.37,2.08,6.76,3.64,10.81,3a16.15,16.15,0,0,0,9.49-5.83,16.62,16.62,0,0,0,4-9.47A36.06,36.06,0,0,0,90.5,38c-.61-2.85-1.41-5.66-2-8.51-.18-.89-.11-1.46-.24-2.35,0,.21.09.06-.06.23s-.77.36-.85.48c.13-.2,1.58-.27,1.84-.31l2.17-.37c5.23-.88,10.5-1.59,15.75-2.35s10.45-1.69,15.67-2.56c4.85-.81,10.08-1.34,14.8.42,3.56,1.33,6.92,4.1,7.91,7.89,1.72,6.6-3.71,14.85,1.13,20.7,2.41,2.91,6.6,3.45,10.07,2.56a31.25,31.25,0,0,0,8.68-4.15c3.12-1.95,6.1-4.12,9.13-6.21a46.77,46.77,0,0,1,8.07-4.89,8.23,8.23,0,0,1,8.55.87c2.87,2.08,5.05,5.06,7.52,7.57,1.46,1.48,3.07,2.76,4.61,4.15a51.45,51.45,0,0,1,4.85,5.05,93.26,93.26,0,0,1,8,11.41c1.15,1.85,2.26,3.72,3.38,5.6a17.72,17.72,0,0,1,2.17,4.46c.08.29.25.82.09,1.1s-.78.34-1,.43a7.45,7.45,0,0,0-1.37.85c-.78.57-1.47,1.25-2.25,1.81a11.31,11.31,0,0,1-2.78,1.28c-4.2,1.59-8.44,3.61-11.51,7a14.77,14.77,0,0,0-4,10.92c.67,7.48,7.64,10.21,13.77,12.43,2.86,1,5.95,2.08,8.21,4.21,3,2.8,3.22,6.77,2.05,10.5-1.43,4.51-4.36,8.38-7,12.22l-9.21,13.24L202,160.38c-1.08,1.56-2.32,4.18-4.54,4.15-2,0-4-1.63-5.66-2.65a17,17,0,0,0-5.1-2.09,15.87,15.87,0,0,0-10.47,1.07,11.89,11.89,0,0,0-6.33,9c-.68,4.43.43,8.78,1.07,13.14.51,3.43.65,7.47-1.12,10.58-2.31,4-7.66,4.17-11.75,4.88q-8,1.38-16.06,2.6c-5.2.79-10.42,1.55-15.64,2.19-2.16.26-4.64.58-6.59-.61a5.48,5.48,0,0,1-2.38-3.55c-.82-3.38-.14-7-.16-10.47a15.91,15.91,0,0,0-3.46-10.42,15.58,15.58,0,0,0-9.74-5.53c-4.36-.62-8.4,1.06-12.23,2.94-4.25,2.09-8.36,3.88-13.17,4.09a40.8,40.8,0,0,1-14.19-2.26,113.88,113.88,0,0,1-13.76-5.7,67.62,67.62,0,0,1-6.16-3.18c-1.65-1-3.63-2.29-4.68-4-1.78-2.86-1.08-7.19-.2-10.22.12-.39.24-.77.38-1.15,0-.08.26-.62.1-.3s0,0,0,0a10.23,10.23,0,0,1,.56-.89c.53-.74,1.15-1.46,1.8-2.21,3.74-4.36,7.81-8.46,11.93-12.46,4.4-4.28,9.34-7.94,13.67-12.32s7.85-8.93,12-13.24A129.68,129.68,0,0,1,100.3,94.21c14.33-9.83,33.23-17,50.53-11.07a22.86,22.86,0,0,1,15.76,17.75,33.38,33.38,0,0,1-3.9,23.39A34.16,34.16,0,0,1,145.1,139.6a31.57,31.57,0,0,1-23.46-.8c-6.54-2.92-15.27-9.88-12.52-18.05,1.1-3.25,3.89-5.73,6.68-7.56a44.93,44.93,0,0,1,10.34-4.84c3.78-1.28,9.22-3,12.78-.26,2.16,1.68,3.72,5.41,1.39,7.57-1.42,1.31.7,3.43,2.12,2.12,2.74-2.54,2.45-6.68.52-9.63-2.54-3.87-7-4.87-11.39-4.27a44.42,44.42,0,0,0-12.85,4.24,29,29,0,0,0-9.42,6.68,13.49,13.49,0,0,0-3.63,10.09c.44,4.56,3.25,8.42,6.58,11.39a33.6,33.6,0,0,0,23.45,8.17c17.28-.66,31.74-14.95,34.18-31.84,1.22-8.4-.43-17.37-5.85-24.08-5.9-7.32-15.64-10.1-24.7-10.43-19.13-.7-36.93,9.43-51,21.61a166,166,0,0,0-16.65,16.9,126.57,126.57,0,0,1-15.57,15.14,125.68,125.68,0,0,0-11.26,11c-2,2.06-3.92,4.14-5.7,6.37a13.74,13.74,0,0,0-2.92,6.52c-.66,3.5-.9,7.9,1.31,10.93,2.72,3.75,7.54,5.85,11.59,7.76,9.09,4.3,19,8.76,29.25,8.38a33.43,33.43,0,0,0,13.79-4c4-2,8.23-4.07,12.76-2.85a12.77,12.77,0,0,1,8.54,7.68c1.3,3.57.59,7.56.55,11.27,0,3.36.32,7.18,3,9.53,3.8,3.28,9.25,1.88,13.74,1.28,11.07-1.49,22.21-3,33.17-5.23,4.33-.87,7.72-3.05,9.28-7.3,1.37-3.74,1.05-7.94.4-11.79-.76-4.43-2.07-9.64,0-13.9,1.64-3.38,5.2-5,8.83-5.08a14.28,14.28,0,0,1,5.41.94c2,.74,3.62,2.1,5.48,3s4.11,1.61,6.21.76,3.49-3.13,4.8-5L214.19,148c3-4.34,6.3-8.6,8.92-13.19,2.22-3.89,4.06-8.42,3.27-13a12.38,12.38,0,0,0-6.31-8.42c-2.95-1.72-6.29-2.68-9.47-3.89-2.79-1.07-5.86-2.44-7.53-5.06-2.29-3.56-1.21-8.2,1.22-11.4,2.86-3.8,7.53-5.85,11.87-7.43a10.26,10.26,0,0,0,2.67-1.33c.87-.64,1.64-1.41,2.54-2,1.46-1,3.07-1.21,3.37-3.24.26-1.73-.56-3.51-1.32-5-.88-1.73-1.93-3.37-2.93-5a132.58,132.58,0,0,0-8-12.15,65.53,65.53,0,0,0-4.64-5.48c-1.68-1.74-3.54-3.23-5.33-4.85-5-4.59-9.65-12.82-17.56-11.73-3.25.45-6.17,2.24-8.88,4-3.22,2.09-6.31,4.38-9.5,6.52a43.51,43.51,0,0,1-9.17,5.14c-3.08,1.12-7.55,1.31-9.14-2.22-1.44-3.17-.18-7.36.25-10.63.52-3.93.57-7.94-1.66-11.39a17.16,17.16,0,0,0-10-6.94c-5.25-1.41-10.78-.65-16,.27-10.93,1.93-22,3.11-32.88,5.16-1.19.23-2.21.42-2.55,1.76a7.14,7.14,0,0,0,.08,2.91c.47,2.92,1.33,5.78,2,8.67a33,33,0,0,1,1.12,9.48c-.26,3.58-2.57,7-5.23,9.27-3,2.53-7,3.79-10.72,2.29s-6.82-4.74-10.88-5.54a7.18,7.18,0,0,0-5.42,1c-2,1.34-3.4,3.62-4.86,5.51q-5,6.5-10.05,13C36,80,29.74,88.85,31.83,98.22c1.6,7.16,8.53,14.08,16.32,12a1.51,1.51,0,0,0-.8-2.9Z"/><path class="cls-2" d="M86.27,81.28a1.5,1.5,0,0,0,0-3,1.5,1.5,0,0,0,0,3Z"/><path class="cls-2" d="M77.25,82.08,77.32,85A23.8,23.8,0,0,0,80,97.14a23.53,23.53,0,0,0,6.52,10.13l6.37,4.93a23.48,23.48,0,0,0,11.71,3.74,15.89,15.89,0,0,0,8.38,0,23.48,23.48,0,0,0,11.71-3.74l6.37-4.93a31.44,31.44,0,0,0,8.11-13.9c.12-.34.23-.68.32-1a43.1,43.1,0,0,0,.63-4.54c.2-1.52.41-3,.61-4.55a7.76,7.76,0,0,0,0-1.08c-.12-1.52-.32-3-.59-4.55s-.4-3-.61-4.54c-1.41-7-5.24-11.86-9.61-17.14a31.57,31.57,0,0,0-13.9-8.1,23.87,23.87,0,0,0-12.56-.56A23.48,23.48,0,0,0,91.79,51a31.7,31.7,0,0,0-11.3,11.3L73.11,73.5c-2.26,3.44-4.66,6.82-6.76,10.37A68,68,0,0,0,60.9,96.08a18.14,18.14,0,0,0-.74,3,90,90,0,0,0-1.35,10.61c-.21,4.08.48,8.15-.05,12.21l1.13-8.37a20.46,20.46,0,0,1-1.39,4.78l3.18-7.53c-1,2.25-2.24,4.35-3.42,6.49-.59,1.08-1.16,2.16-1.66,3.28-1.34,2.95-2.67,6-3.79,9a12.81,12.81,0,0,0-.52,1.7A75.7,75.7,0,0,0,51.1,140a28.77,28.77,0,0,0,1.11,8.92c.06.23.12.45.19.68l3.17,7.52q1.26,1.8,2.67,3.48c3.19,4.14,1.75,2.66,5.89,5.86a14.88,14.88,0,0,0,3.47,2.62l7.53,3.18a47.94,47.94,0,0,0,9.55,1.39,18.72,18.72,0,0,0,4-.1c4.08-.48,8.13-1.12,12.19-1.68L92.53,173a19.6,19.6,0,0,1,4.9-.08l-8.37-1.13a37.92,37.92,0,0,1,8.61,2.7,80.13,80.13,0,0,0,8.93,3,78.12,78.12,0,0,0,9.08,1.85,141.23,141.23,0,0,0,17.16,1.82,60.1,60.1,0,0,0,17.1-1.73,10.5,10.5,0,0,0,1-.34c2.47-.9,5.53-2.19,7.9-3.33a15.42,15.42,0,0,0,1.82-1c2.68-1.78,5.23-3.89,7.72-5.92.65-.53,1.28-1.08,1.91-1.64a146.25,146.25,0,0,0,12-11.58c1.91-2.14,3.63-4.42,5.38-6.69s3.54-4.48,5.09-6.89c3.16-4.95,5.14-10.55,7.39-15.94l-3.18,7.52c1.12-2.64,2.39-5.21,3.51-7.86,2-4.71,3.33-7.87,3-13.6a58.38,58.38,0,0,0-1.17-9,41.14,41.14,0,0,0-1.95-4.89c-1.83-4.32-3.94-8.47-6-12.67l-4.78-9.52a40.75,40.75,0,0,0-15.71-17.39,35.24,35.24,0,0,0-10.74-4.29c-4.14-.81-8.36-1.21-12.55-1.66l-10.4-1.12c-1.57-.17-3.15-.4-4.73-.48a53.74,53.74,0,0,0-10,1.18,11.29,11.29,0,0,0-1.17.35l-7.53,3.18a3.56,3.56,0,0,0-.65.38c-9.06,5.39-14.82,14.6-17,24.74a214.74,214.74,0,0,0-4.35,30.72l58.7-15.9a88.81,88.81,0,0,1-4-8.15l3.18,7.52A84.94,84.94,0,0,1,147,75.25l1.13,8.37a9,9,0,0,1-.08-1.94l-1.12,8.38a4.32,4.32,0,0,1,.3-1.08L144,96.5a3.2,3.2,0,0,1,.34-.53l-4.93,6.37a5.41,5.41,0,0,1,.54-.53l-6.37,4.93A7.08,7.08,0,0,1,135,106l-7.53,3.18c3.66-1.49,7.5-2.6,10.94-4.59a34.35,34.35,0,0,0,12.21-12.27,33.87,33.87,0,0,0,4.52-17.11c.23-11.58-7-23.91-17.35-29.17-6.18-3.13-12.64-5.22-19.7-4.88v63l8.72-.45A23.78,23.78,0,0,0,138.9,101,23.63,23.63,0,0,0,149,94.45L154,88.08a23.48,23.48,0,0,0,3.74-11.71,15.89,15.89,0,0,0,0-8.38A23.48,23.48,0,0,0,154,56.28L149,49.91a31.5,31.5,0,0,0-13.9-8.11,16.73,16.73,0,0,0-2.8-.65c-2.73-.42-7.12-1.31-10.52-1.23A68.34,68.34,0,0,0,111,41.3a16.89,16.89,0,0,0-2.44.66c-3.94,1.37-8.51,3-12,5.51a86.38,86.38,0,0,0-8.09,6.3,19.5,19.5,0,0,0-1.87,2c-2.77,3.36-5.79,6.85-7.61,10.88s-4,8.38-4.72,12.83-1.65,9.33-1.45,13.94a76.7,76.7,0,0,0,1.9,13.91A23.88,23.88,0,0,0,80.27,118a23.8,23.8,0,0,0,8.84,8.11,23.48,23.48,0,0,0,11.71,3.74,23.86,23.86,0,0,0,12.56-.56l7.53-3.18a31.7,31.7,0,0,0,11.3-11.3l3.17-7.53a31.7,31.7,0,0,0,0-16.74c-.24-1-.43-2.09-.57-3.14l1.12,8.37a28.75,28.75,0,0,1,0-7.18L134.81,97a24.76,24.76,0,0,1,1.66-6.09l-3.17,7.53a20.7,20.7,0,0,1,2.56-4.36l-4.92,6.37a19.21,19.21,0,0,1,3.11-3.07l-6.37,4.92a19.67,19.67,0,0,1,4.09-2.38l-7.52,3.18a18.1,18.1,0,0,1,4.16-1.16L120,103.06a16.07,16.07,0,0,1,3.92,0l-8.37-1.12a15.8,15.8,0,0,1,2.8.65l8.37-61.87-8.72.45a23.71,23.71,0,0,0-12.14,2.72,23.6,23.6,0,0,0-10.13,6.51A23.51,23.51,0,0,0,89.25,60.5a23.76,23.76,0,0,0-2.71,12.13L87.67,81a31.38,31.38,0,0,0,8.1,13.9l6.37,4.92a31.26,31.26,0,0,0,15.9,4.3,10.56,10.56,0,0,1,1.78.06l-8.37-1.13a8.82,8.82,0,0,1,2,.52l-7.53-3.17a4.72,4.72,0,0,1,.92.54L100.49,96a2.79,2.79,0,0,1,.35.34L95.91,90a3,3,0,0,1,.37.62L93.1,83.08a2,2,0,0,1,.11.48l-1.12-8.38a3.13,3.13,0,0,1,0,.53l1.12-8.37a2.37,2.37,0,0,1-.11.46l3.17-7.52a3,3,0,0,1-.32.58l4.92-6.37a4.27,4.27,0,0,1-.48.47L106.76,50a6.19,6.19,0,0,1-1.07.59l7.53-3.17c-3.51,1.46-7.15,2.63-10.56,4.35C94.53,55.88,89.11,64,86.36,72.4c-2.36,7.2-1.2,13.65,0,20.87.33,1.94.74,3.86,1.2,5.77A86.8,86.8,0,0,0,91,109.84a150.7,150.7,0,0,0,8,17.78L104,134a23.75,23.75,0,0,0,10.14,6.52,15.76,15.76,0,0,0,8,2.15,23.86,23.86,0,0,0,12.56-.57l7.52-3.17L148.5,134A23.58,23.58,0,0,0,155,123.85a23.65,23.65,0,0,0,2.72-12.13q.35-4.8,1-9.57l-1.13,8.38c.4-2.94.87-5.87,1.43-8.78A44.48,44.48,0,0,1,160.84,94l-3.17,7.53a7.36,7.36,0,0,1,.84-1.47l-4.92,6.38a5.29,5.29,0,0,1,.72-.7l-6.38,4.93a3.86,3.86,0,0,1,.65-.39l-7.53,3.18a7,7,0,0,1,1.18-.35l-8.38,1.13a20.88,20.88,0,0,1,4.67.23l5.2.56c3.32.36,6.65.66,9.95,1.09L145.3,115a16.14,16.14,0,0,1,3.36.81l-7.53-3.17a8.85,8.85,0,0,1,1.65.91l-6.38-4.93a8.27,8.27,0,0,1,1.36,1.35l-4.93-6.38a35.16,35.16,0,0,1,2.87,5.21l2.89,5.76c2,3.92,4,7.81,5.89,11.79l-3.17-7.53a7.68,7.68,0,0,1,.36,1.12l-1.12-8.37a3.2,3.2,0,0,1,0,.82l1.12-8.37a5.39,5.39,0,0,1-.32,1.24l3.18-7.52c-.44,1-1,2-1.46,3-1.51,3.4-2.91,6.86-4.34,10.29l3.18-7.52a47.55,47.55,0,0,1-6.13,10.41l4.92-6.37a82.75,82.75,0,0,1-8.17,8.88c-2.9,2.78-5.87,5.61-9,8.11l6.38-4.93a16.23,16.23,0,0,1-2.83,1.75l7.52-3.18a13.28,13.28,0,0,1-3.34.88l8.37-1.12a62.73,62.73,0,0,1-15.12-.41l8.37,1.12a78.15,78.15,0,0,1-18.47-4.93,39.12,39.12,0,0,0-8.61-2.7c-4-.61-8.26-1.57-12.38-1.15-4.31.45-8.58,1.18-12.87,1.77l8.38-1.13a18.16,18.16,0,0,1-4.48.1l8.37,1.13a6.42,6.42,0,0,1-1-.24l7.53,3.17-.28-.16,6.37,4.93-.24-.21,4.92,6.37-.2-.29,3.17,7.53a2,2,0,0,1-.18-.68l1.13,8.38a3,3,0,0,1,0-.74L113,148.19a16.14,16.14,0,0,1,1-3l-3.18,7.52c1-2.24,2.24-4.35,3.43-6.5.58-1.07,1.15-2.15,1.65-3.26,1.34-2.95,2.67-6,3.79-9,.21-.57.39-1.14.55-1.73s.28-1.27.39-1.92c.52-3.28,1-6.62,1.28-9.94a36.85,36.85,0,0,0,0-4.07,54.38,54.38,0,0,1,0-8.37l-1.13,8.38a19.09,19.09,0,0,1,1.28-4.65L119,119.14c1.9-4.35,4.87-8.24,7.47-12.18l8.47-12.84-49.47,6.37.23.28L80.72,94.4A7.31,7.31,0,0,1,81.61,96l-3.17-7.53a9,9,0,0,1,.44,1.75l-1.13-8.37a8.34,8.34,0,0,1,0,1.8l1.13-8.37a9.56,9.56,0,0,1-.39,1.39L140.32,85l-.07-2.92a23.78,23.78,0,0,0-2.72-12.14A23.7,23.7,0,0,0,131,59.8a23.58,23.58,0,0,0-10.14-6.51,23.66,23.66,0,0,0-12.13-2.71l-8.38,1.12a31.57,31.57,0,0,0-13.9,8.1l-4.92,6.38a31.26,31.26,0,0,0-4.3,15.9Z"/><path class="cls-2" d="M34.35,86.46a26.4,26.4,0,0,0,.22,11.63,25,25,0,0,0,5.23,9.65c4.2,5.08,10.77,7.78,17.23,8.14a15.23,15.23,0,0,0,11.82-4.66,14.68,14.68,0,0,0,1.44-17.88c-2.67-4.18-6.91-6.85-10-10.69l1.87,2.43a17.37,17.37,0,0,1-2-3.18l1.21,2.86a10,10,0,0,1-.61-2L61.25,86a7.4,7.4,0,0,1,0-1.63l-.43,3.19a6.23,6.23,0,0,1,.34-1.17l-1.21,2.87a6.59,6.59,0,0,1,.51-.89l-1.87,2.43a9.72,9.72,0,0,1,1.73-1.66L57.86,91A43.33,43.33,0,0,0,63,86.88a24.13,24.13,0,0,0,3.89-5.34c1.19-2.26,2-4.71,3.57-6.75l-1.88,2.42A10.22,10.22,0,0,1,70,75.82l-2.43,1.87.27-.2L58.61,78.7c5.67,1.33,11.39,2.66,17,4.4L72.7,81.89,73,82l-2.43-1.88.26.22L69,78l.15.27-1.21-2.87,0,.28V69.25a1.13,1.13,0,0,1-.16.56L69,66.94l-.18.28,1.88-2.43a4.38,4.38,0,0,1-.77.72l2.43-1.88c-6,3.9-12.63,6.82-18.21,11.4a18.75,18.75,0,0,0-6.66,12A14.68,14.68,0,0,0,51.2,99.4c2.25,2.37,5,3.29,8,4.34l-2.87-1.21a5.76,5.76,0,0,1,.88.48l-2.43-1.88a6.5,6.5,0,0,1,.95.94l-1.88-2.42a8.11,8.11,0,0,1,.51.86l-1.21-2.86a5.6,5.6,0,0,1,.36,1.29l-.43-3.19a5.56,5.56,0,0,1,0,1l.43-3.19a4.67,4.67,0,0,1-.13.65L65,85.4a18,18,0,0,1-4.69,0l3.19.43a18.53,18.53,0,0,1-4.12-1.14l2.87,1.21A19.53,19.53,0,0,1,60,84.71a12.39,12.39,0,0,0-9.25-1.21,12,12,0,0,0-2.87,21.93,28,28,0,0,0,17.15,4l3.19-.43a9,9,0,0,0,4.08-2.14,11.63,11.63,0,0,0,4.3-6.24A16.58,16.58,0,0,0,69.07,82.1a31.57,31.57,0,0,0-5.11-2l2.86,1.2A3.57,3.57,0,0,1,66,80.8l2.42,1.87-.22-.24L70,84.86l-.18-.29,1.21,2.86a2.23,2.23,0,0,1-.22-.66L71.28,90a5.88,5.88,0,0,1,0-1.39l-.43,3.19a7.06,7.06,0,0,1,.47-1.61L70.11,93A10,10,0,0,1,71,91.58L69.11,94a13.12,13.12,0,0,1,2.3-2.23L69,93.65a99.58,99.58,0,0,1,10-6c1.84-1.08,3.76-2.08,5.53-3.25a15,15,0,0,0,5.86-6.74,9.46,9.46,0,0,0,1-3.59A12.67,12.67,0,0,0,89.77,66a14.06,14.06,0,0,0-8.16-6.12c-1-.31-2-.57-3.07-.85-2.13-.58-4.27-1.15-6.41-1.69s-4.28-1.08-6.43-1.58a14.81,14.81,0,0,0-5.5-.39,11.83,11.83,0,0,0-5.94,2.57,17.07,17.07,0,0,0-3.55,3.55,26.92,26.92,0,0,0-3.33,5.48,24.57,24.57,0,0,1-2.54,4.64l1.88-2.43a11.88,11.88,0,0,1-2,1.9l2.43-1.87c-1.52,1.14-3.1,2.23-4.53,3.49a15.88,15.88,0,0,0-4,5.86c-2.3,5.44-1.44,11.12,1.27,16.24a32.34,32.34,0,0,0,6,7.63c1.75,1.72,3.82,3.23,5.35,5.16l-1.88-2.43a7.33,7.33,0,0,1,.77,1.32l-1.21-2.86a3.31,3.31,0,0,1,.2.68l-.42-3.19a2.59,2.59,0,0,1,0,.68l.43-3.19a2.16,2.16,0,0,1-.18.66l1.21-2.87-.17.31,1.88-2.42a2.51,2.51,0,0,1-.44.48l2.43-1.88a2.46,2.46,0,0,1-.56.34L56.18,92a5.39,5.39,0,0,1-1,.28l3.19-.43a9.1,9.1,0,0,1-2.15,0l3.19.43a13.69,13.69,0,0,1-3-.82l2.86,1.21a14,14,0,0,1-2.71-1.55L59,93a14,14,0,0,1-2.23-2.19l1.88,2.43A13.36,13.36,0,0,1,57,90.39l1.21,2.86a14.12,14.12,0,0,1-.83-3.14l.43,3.19a13.59,13.59,0,0,1,0-3.25l-.42,3.19.06-.4a9.19,9.19,0,0,0,.22-4.79,9,9,0,0,0-1.43-4.46,12,12,0,0,0-16.42-4.3c-2.46,1.59-5,4.15-5.51,7.17Z"/><path class="cls-2" d="M39.33,107.32c4.36,4.72,10.12,7.93,14.15,13l-1.87-2.43a23.3,23.3,0,0,1,2.93,5L53.33,120a28.56,28.56,0,0,1,1.86,6.92l-.42-3.19A42.81,42.81,0,0,1,54.61,135l.43-3.19c-.54,3.83-1.41,7.59-2.3,11.34A12.58,12.58,0,0,0,54,152.4a12,12,0,0,0,21.93-2.87,139.93,139.93,0,0,0,2.76-14.76,50.86,50.86,0,0,0-.33-14.42C77,111.51,72,103.82,65.23,98.14a94.51,94.51,0,0,1-8.93-7.79,12,12,0,0,0-17,17Z"/><path class="cls-2" d="M63.61,138.28a15,15,0,0,0-13.14,2.86c-2.33,1.8-3.77,4.17-5.47,6.52l1.88-2.43a7.61,7.61,0,0,1-1.13,1.14l2.43-1.88c-.8.54-1.68.9-2.52,1.38a16.73,16.73,0,0,0-3.89,3c-4.32,4.55-5.65,11.6-2.41,17.17A12.71,12.71,0,0,0,47.93,172c1,.22,1.9.47,2.84.75a53.59,53.59,0,0,1,5.74,2l-2.87-1.21c2.65,1.12,5.13,2.54,7.71,3.77A42.77,42.77,0,0,0,67.79,180a39.89,39.89,0,0,0,6.94,1.15,40.66,40.66,0,0,0,9.55-.11,16.07,16.07,0,0,0,9.22-4.47c.92-.86,1.59-1.91,2.59-2.69l-2.43,1.87c1.86-1.31,4.13-1.85,6-3.18a19.66,19.66,0,0,0,6-6.06,15.68,15.68,0,0,0,1.65-3.84,14.27,14.27,0,0,0,.54-4.59,12.76,12.76,0,0,0-3.51-8.48,12,12,0,0,0-17,0c-2.06,2.23-3.77,5.33-3.52,8.48a3.47,3.47,0,0,1,0,.72l.43-3.19a5.24,5.24,0,0,1-.25,1l1.21-2.87a5.91,5.91,0,0,1-.74,1.23l1.88-2.43a8.91,8.91,0,0,1-1.08,1l2.43-1.87c-1.62,1.21-3.58,1.74-5.31,2.76A19,19,0,0,0,78,157.89,17.89,17.89,0,0,1,76,160l2.43-1.87a4.34,4.34,0,0,1-.63.37l2.87-1.21a6.57,6.57,0,0,1-1.15.33l3.19-.43a37.45,37.45,0,0,1-8.85-.22l3.19.42a22,22,0,0,1-5.2-1.44l2.87,1.21c-1.59-.69-3.12-1.52-4.66-2.32-2.33-1.2-4.73-2.23-7.15-3.23a56.4,56.4,0,0,0-9.9-3.06l7.17,5.51L60,153.8l1.21,2.86-.09-.3.43,3.19a2,2,0,0,1,0-.64l-.43,3.19a2.34,2.34,0,0,1,.18-.64l-1.21,2.86a5,5,0,0,1,.54-.89l-1.88,2.43a5.22,5.22,0,0,1,.77-.72L57.08,167a19,19,0,0,1,2-1.08,18.45,18.45,0,0,0,4-2.86c1.74-1.63,2.87-3.76,4.28-5.65l-1.88,2.43a7.46,7.46,0,0,1,.78-.81l-2.43,1.88a5.19,5.19,0,0,1,.95-.59l-2.87,1.21a2.75,2.75,0,0,1,.69-.21l-3.19.43a2.06,2.06,0,0,1,.7,0l-3.19-.43.35.09a12.61,12.61,0,0,0,9.24-1.21A12.26,12.26,0,0,0,72,153a12.12,12.12,0,0,0-1.21-9.24,12.31,12.31,0,0,0-7.17-5.52Z"/><path class="cls-2" d="M114.37,53.17c.61-8.16.33-16.73-4.12-23.91L99.89,47.32q8.48-.45,16.93-1.24c2.77-.27,5.55-.56,8.31-.88,2.31-.27,4.72-.83,7-.55L129,44.23a6,6,0,0,1,1.18.31l-2.87-1.21a4.93,4.93,0,0,1,.74.43l-2.43-1.87a2.21,2.21,0,0,1,.41.4l-1.88-2.43a2.33,2.33,0,0,1,.31.5l-1.21-2.86a4.65,4.65,0,0,1,.29,1.11l-.43-3.19c.32,3.68.38,7.41.56,11.11A12.61,12.61,0,0,0,127.16,55a12,12,0,0,0,17,0,12,12,0,0,0,3.52-8.48l-.34-6.89c-.18-3.86-.09-8-2.14-11.39a15,15,0,0,0-9.81-7.17,23.83,23.83,0,0,0-8-.14q-13.67,1.66-27.44,2.38a12.29,12.29,0,0,0-10.36,5.94,12,12,0,0,0,0,12.12,17.36,17.36,0,0,1,1.13,2.13l-1.21-2.87a20.8,20.8,0,0,1,1.36,5l-.43-3.19a51.62,51.62,0,0,1,0,10.69c-.23,2.93,1.49,6.47,3.51,8.49a12,12,0,0,0,17,0,13.37,13.37,0,0,0,3.52-8.49Z"/><path class="cls-2" d="M157.85,77c3.48.5,6.69.83,10.12-.3a21,21,0,0,0,8.47-5.07,12,12,0,0,0,.94-15.76c-3.53-4.56-10.38-6.3-15.48-3.09a13.82,13.82,0,0,1-1.45.82l2.87-1.21a6,6,0,0,1-1.16.35l3.19-.43a3.06,3.06,0,0,1-.8,0l3.19.43-.28-.07,2.87,1.2a1.83,1.83,0,0,1-.5-.26l2.43,1.87a1.77,1.77,0,0,1-.42-.4l1.88,2.43a1.81,1.81,0,0,1-.29-.48l1.21,2.87a1.61,1.61,0,0,1-.14-.52l.43,3.19v-.26l-.43,3.19.05-.25-1.21,2.87.11-.24-1.88,2.43.17-.21L160.07,73.2a20.05,20.05,0,0,0,6,.61,23,23,0,0,0,8.41-2.23c3.75-1.68,6.11-4.73,8.52-7.9l-1.88,2.43a11.61,11.61,0,0,1,1.25-1.37l-2.42,1.88a6.94,6.94,0,0,1,1.58-.92l-2.86,1.21A29.37,29.37,0,0,0,184,64.53a21.89,21.89,0,0,0,5.91-6.18L188,60.78a6.22,6.22,0,0,1,.77-.85l-2.42,1.88a4.67,4.67,0,0,1,.95-.54l-2.87,1.21c1.21-.45,2.5-.57,3.72-1a15.05,15.05,0,0,0,10-9.93l-20.05,5.3a3.76,3.76,0,0,1,.5.55L176.72,55c1.43,2.1,2.21,4.22,4.18,6.06a58.16,58.16,0,0,0,5.92,4.29l-2.43-1.87a12.72,12.72,0,0,1,2.19,2.27l-1.87-2.43c1.51,2,2.8,4.21,4.35,6.23A19.68,19.68,0,0,0,192,72.77c1.61,1.32,3.33,2.36,5,3.6l-2.43-1.88a6.67,6.67,0,0,1,.84.84l-1.88-2.43A41,41,0,0,1,197,79.6l-1.21-2.87.11.36-.43-3.19,0,.38.43-3.19-.1.32L197,68.54l-.18.29,1.87-2.43-.24.25,2.43-1.88a6.12,6.12,0,0,1-1.27.72l2.86-1.21a34.9,34.9,0,0,1-3.66.9,18.29,18.29,0,0,0-7.9,4.31c-3.06,2.82-4.27,6.59-5.78,10.32l1.21-2.87a9.76,9.76,0,0,1-1.23,2.21L187,76.72a6.1,6.1,0,0,1-.89.87l2.42-1.88a2.7,2.7,0,0,1-.66.38l2.87-1.21-.37.1,3.19-.43-.37,0,3.19.43-.4-.07,2.86,1.21a2.52,2.52,0,0,1-.72-.39l2.43,1.88a7.73,7.73,0,0,1-1.07-1.07L201.36,79a9.14,9.14,0,0,1-1.07-1.87L201.5,80a23.16,23.16,0,0,1-1.15-4.73,25.67,25.67,0,0,0-1.76-5.92c-2.8-6.64-8.74-11.62-16.23-11.61a12.4,12.4,0,0,0-8.48,3.52,12.21,12.21,0,0,0-3.52,8.48c.29,6.5,5.28,12,12,12a3.5,3.5,0,0,1,.65,0l-3.19-.43a5.3,5.3,0,0,1,1.2.32l-2.86-1.21a7.17,7.17,0,0,1,1.06.65l-2.43-1.88a8.33,8.33,0,0,1,1.14,1.16L176.05,78A10.84,10.84,0,0,1,177.26,80l-1.21-2.87a33,33,0,0,1,1.49,6.37,20.53,20.53,0,0,0,5.58,10.68,14.33,14.33,0,0,0,20.75-.4c2.73-3,3.84-6.4,5.37-10L208,86.63a9.85,9.85,0,0,1,1.1-1.92l-1.88,2.43a6.17,6.17,0,0,1,.89-.88l-2.43,1.88a7,7,0,0,1,.95-.56l-2.86,1.21a15,15,0,0,1,2.89-.78,22.36,22.36,0,0,0,5-1.8,13.35,13.35,0,0,0,6-5.55,13.81,13.81,0,0,0,1.73-6.38,14.12,14.12,0,0,0-1.77-6.8,66.33,66.33,0,0,0-3-6,19.38,19.38,0,0,0-5.61-5.83c-.83-.6-1.74-1.1-2.56-1.72l2.43,1.88a13.24,13.24,0,0,1-1.95-2l1.88,2.43c-1.93-2.53-3.51-5.23-5.51-7.72s-4.94-4-7.49-5.93l2.43,1.88a8.35,8.35,0,0,1-1-1l1.88,2.43a18.53,18.53,0,0,1-1.11-2,17.25,17.25,0,0,0-3-4,12.08,12.08,0,0,0-11.68-3.08A12.31,12.31,0,0,0,175,45.2l-.08.25,1.21-2.87a1.82,1.82,0,0,1-.24.43l1.88-2.43a2.08,2.08,0,0,1-.32.34L179.89,39a3.61,3.61,0,0,1-.85.49l2.87-1.21c-1.2.44-2.49.56-3.71,1A16,16,0,0,0,171.82,43a30.92,30.92,0,0,0-3.32,4.23l1.88-2.43a7.56,7.56,0,0,1-.78.82L172,43.7a8.23,8.23,0,0,1-1.6.86l2.87-1.21c-1.36.55-2.74,1.09-4.07,1.7a13.83,13.83,0,0,0-2.63,1.78,28.56,28.56,0,0,0-5,5.64L163.45,50a10.8,10.8,0,0,1-1.58,1.59l2.42-1.88a9.83,9.83,0,0,1-1.94,1.11l2.86-1.21a10.21,10.21,0,0,1-2.17.57l3.19-.43a9.87,9.87,0,0,1-2.24,0l3.19.42a5.88,5.88,0,0,1-.73-.14,12.12,12.12,0,0,0-6.38,0,12,12,0,0,0-5.3,3.09,16.3,16.3,0,0,0-3.36,5.74,13.62,13.62,0,0,0,5.09,14.52c5.23,4,12.1,3.53,17.51.13L159.47,54.69a10,10,0,0,1-.84.75l2.43-1.87a10.25,10.25,0,0,1-1.63,1l2.87-1.21a9.82,9.82,0,0,1-2.18.61l3.19-.43a10,10,0,0,1-1.89,0l3.19.43-.38,0a9.15,9.15,0,0,0-4.78-.22A8.94,8.94,0,0,0,155,55.1a12,12,0,0,0-4.31,16.42c1.57,2.43,4.17,5.08,7.17,5.51Z"/><path class="cls-2" d="M110.66,171.07c1.48,5.4,3.21,10.8,4,16.36l-.43-3.19a30.43,30.43,0,0,1,.2,6.4,15.67,15.67,0,0,0,.22,5.49,13.09,13.09,0,0,0,7.66,8.87,15.32,15.32,0,0,0,6.28,1.29c1.13,0,2.27-.08,3.4-.14,2.19-.13,4.37-.32,6.55-.55,5.35-.56,10.67-1.32,16-2.09a23.68,23.68,0,0,0,9.26-3.15,19,19,0,0,0,5.49-5.42,7.05,7.05,0,0,0,.69-1.23,18.49,18.49,0,0,0,1.46-3.85,22.23,22.23,0,0,0,0-8.64c-.37-2.29-1.14-4.49-1.48-6.79l.43,3.19a29,29,0,0,1,0-7.5l-.43,3.19a29.52,29.52,0,0,1,1.5-6l.43-3.19a9.08,9.08,0,0,0-1-4.63,11.51,11.51,0,0,0-4.91-5.73,14.14,14.14,0,0,0-6.06-1.64,12.07,12.07,0,0,0-8.49,3.51c-2.26,2.44-4.31,5-6.33,7.7-1.43,1.89-2.66,3.93-4.1,5.81l1.88-2.43a9.87,9.87,0,0,1-1.45,1.44l2.43-1.87a9.22,9.22,0,0,1-1.61.93L145,166a14.05,14.05,0,0,1-3.31.87l3.19-.43c-1,.13-2.05.2-3.08.26a12.7,12.7,0,0,0-8.49,3.52,12,12,0,0,0,0,17c2.27,2.08,5.31,3.69,8.49,3.51,4.8-.27,10-.82,14.07-3.7a20.46,20.46,0,0,0,3.87-3.32,49.9,49.9,0,0,0,3.08-4.14c1-1.52,2.06-3,3.18-4.46l-1.88,2.43c1.32-1.7,2.71-3.33,4.17-4.91l-20.05-11.67a37.78,37.78,0,0,0-2.18,13.37,47.06,47.06,0,0,0,.94,8c.35,1.77.94,3.48,1.23,5.26l-.43-3.19a9.45,9.45,0,0,1,.05,2.06l.43-3.19a8.13,8.13,0,0,1-.29,1.18l1.21-2.86a6.41,6.41,0,0,1-.68,1.23l1.87-2.43a6.67,6.67,0,0,1-.92.92l2.43-1.87a9.08,9.08,0,0,1-1.74,1l2.87-1.21c-3.34,1.32-7.19,1.48-10.71,2l3.19-.43c-3.05.41-6.12.79-9.19,1.07-1.45.13-2.91.24-4.37.33a25.22,25.22,0,0,1-4.43.09l3.19.43a2.31,2.31,0,0,1-.63-.2l2.87,1.21-.26-.18,2.43,1.87-.22-.24,1.88,2.43-.16-.32,1.21,2.86-.08-.35.43,3.19c0-1,.2-2,.26-3a30.63,30.63,0,0,0,0-3.32,63.47,63.47,0,0,0-1.28-9.1c-.91-4.32-2.2-8.57-3.36-12.82a12.43,12.43,0,0,0-5.52-7.17,12,12,0,0,0-16.42,4.3,12.53,12.53,0,0,0-1.21,9.25Z"/><path class="cls-2" d="M173.64,161c3.93.35,7.75-1,11.6-1.58l-3.19.43a13.79,13.79,0,0,1,3.08,0l-3.19-.43a35.34,35.34,0,0,1,6.73,2.06c4.64,1.71,9.65,2.15,14.07-.51,2.91-1.76,4.77-4.6,6.84-7.2l4.81-6c1.6-2,3.2-4,4.78-6a34.3,34.3,0,0,0,3.62-5,19.26,19.26,0,0,0,2.19-7c.83-6.16-1.18-12.73-6.82-16.06a17.1,17.1,0,0,0-7.87-2.27c-.92-.1-1.84-.12-2.76-.23l3.19.43a19.76,19.76,0,0,1-4.87-1.44l2.87,1.21c-3.28-1.41-6.42-3.06-9.75-4.35a17.7,17.7,0,0,0-3.57-1,31.85,31.85,0,0,0-4.57-.55,32.86,32.86,0,0,0-5,.54c-2.76.38-5.84,3.25-7.17,5.52A12,12,0,0,0,183,128l2.87,1.21a12.12,12.12,0,0,0,6.38,0l.36-.05-3.19.43a11.83,11.83,0,0,1,2.79,0l-3.19-.43a20,20,0,0,1,4.41,1.34l-2.87-1.21c3.23,1.39,6.32,3,9.59,4.3s6.69,1.4,10.14,1.81l-3.19-.43a6.22,6.22,0,0,1,1.27.32l-2.87-1.21a3.26,3.26,0,0,1,.55.31l-2.43-1.87a2.4,2.4,0,0,1,.46.44l-1.87-2.43a3.06,3.06,0,0,1,.39.71l-1.21-2.87a4.36,4.36,0,0,1,.2.79l-.42-3.19a9.84,9.84,0,0,1,0,2.17l.43-3.19a9,9,0,0,1-.58,2.11l1.21-2.86a13.75,13.75,0,0,1-1.65,2.62l1.88-2.43c-2.39,3-4.82,6.06-7.23,9.08L191.68,138a25.75,25.75,0,0,1-3.49,4.15l2.43-1.88-.3.18,2.87-1.21a1.77,1.77,0,0,1-.75.19l3.19-.43-.41,0,3.19.43c-3.33-.62-6.32-2.43-9.66-3a27.25,27.25,0,0,0-10.34,0c-1.78.28-3.52.77-5.3,1l3.19-.43a12.44,12.44,0,0,1-2.66.06c-2.9-.26-6.5,1.53-8.48,3.51a12,12,0,0,0,0,17l2.42,1.88a12,12,0,0,0,6.06,1.64Z"/><path class="cls-2" d="M219.91,79.67a1.24,1.24,0,0,1,.17-.27l-.47.6a2.28,2.28,0,0,1,.42-.4l-.61.47a11.27,11.27,0,0,0,1.76-1.38,4.18,4.18,0,0,0,1.19-2.9,5.21,5.21,0,0,0-.12-1.06c0-.11-.05-.21-.08-.32a6.81,6.81,0,0,0-.42-1,6.51,6.51,0,0,0-.62-.84,2.13,2.13,0,0,0-.26-.26,4.75,4.75,0,0,0-1.78-1,4.06,4.06,0,0,0-1.09-.17,5,5,0,0,0-1.09.11,3,3,0,0,0-1.33.78,2.94,2.94,0,0,0-.77,1.32,3.09,3.09,0,0,0,.77,2.92c.7.79,1.44,1.56,2.11,2.38l-.47-.6a2.8,2.8,0,0,1,.27.43l-.3-.71a1.49,1.49,0,0,1,.09.3l-.1-.79a1.77,1.77,0,0,1,0,.23l.11-.8a.88.88,0,0,1-.05.15l.3-.72a.54.54,0,0,1-.07.13l.47-.61a1.06,1.06,0,0,1-.15.15l.61-.47a1.39,1.39,0,0,1-.31.18l.72-.3c-.55.23-1.14.38-1.71.56l-1.85.59a3.17,3.17,0,0,0-1.79,1.38,3,3,0,0,0,3.39,4.41l2.52-.81a12.27,12.27,0,0,0,1.75-.65,3.59,3.59,0,0,0,1.75-1.89,3.5,3.5,0,0,0,.32-1.53,4.37,4.37,0,0,0-.51-1.83,7.08,7.08,0,0,0-1.1-1.46l-1.75-2-1.32,5h.06l-.8.11a1.5,1.5,0,0,1,.3,0l-.79-.1a2,2,0,0,1,.33.09l-.71-.3a1.17,1.17,0,0,1,.3.19l-.61-.47a1.65,1.65,0,0,1,.3.29l-.47-.6a2.22,2.22,0,0,1,.25.42l-.3-.72a1.76,1.76,0,0,1,.11.41l-.11-.8a1.37,1.37,0,0,1,0,.35l.11-.8a1.89,1.89,0,0,1-.09.34l.3-.71a1.45,1.45,0,0,1-.17.26l.47-.6a2.4,2.4,0,0,1-.43.41l.61-.47a7,7,0,0,0-2.43,2.3,2.28,2.28,0,0,0-.36,1.12,2.33,2.33,0,0,0,.06,1.2,3.05,3.05,0,0,0,1.38,1.79,3,3,0,0,0,2.31.3,2.93,2.93,0,0,0,1.79-1.38Z"/><path class="cls-2" d="M193.21,164.25a14.68,14.68,0,0,0,2.64.9,12.65,12.65,0,0,0,1.73.25,7.21,7.21,0,0,0,1.67-.15,4.8,4.8,0,0,0,3-2.11,3.69,3.69,0,0,0,.58-1.35,4.3,4.3,0,0,0,.12-1.13,3.63,3.63,0,0,0-.2-1.13,2.27,2.27,0,0,0-.53-1,2.33,2.33,0,0,0-.85-.77,3.06,3.06,0,0,0-2.31-.31,3.09,3.09,0,0,0-1.79,1.38l-.3.72a2.87,2.87,0,0,0,0,1.59,2,2,0,0,1,.09.33l-.11-.79a1.22,1.22,0,0,1,0,.27l.1-.8a1.4,1.4,0,0,1-.11.4l.31-.72a1.65,1.65,0,0,1-.22.36l.47-.61a2.2,2.2,0,0,1-.3.31l.6-.47a1.87,1.87,0,0,1-.39.22l.72-.3a2.64,2.64,0,0,1-.67.17l.8-.11a4.61,4.61,0,0,1-1.05,0l.8.11a10.11,10.11,0,0,1-2.42-.67l.71.3-.08,0a2.38,2.38,0,0,0-1.12-.35,2.29,2.29,0,0,0-1.19,0,3.08,3.08,0,0,0-1.8,1.38,3,3,0,0,0-.3,2.31l.3.72a3.1,3.1,0,0,0,1.08,1.08Z"/><path class="cls-2" d="M90.86,32.11c3.86,0,3.87-6,0-6s-3.87,6,0,6Z"/></g><path class="cls-3" d="M35.35,108.27c-7.71,2.11-13.36-7-12.87-13.71C22.81,90,24.9,85.79,27.33,82c2.58-4,5.62-7.72,8.54-11.49l5-6.4c1.47-1.89,2.85-4.22,4.69-5.76,3.06-2.57,7.08.59,9.76,2.24,3.37,2.08,6.76,3.64,10.81,3a16.15,16.15,0,0,0,9.49-5.83,16.62,16.62,0,0,0,4-9.47A36.06,36.06,0,0,0,78.5,39c-.61-2.85-1.41-5.66-2-8.51-.18-.89-.11-1.46-.24-2.35,0,.21.09.06-.06.23s-.77.36-.85.48c.13-.2,1.58-.27,1.84-.31l2.17-.37c5.23-.88,10.5-1.59,15.75-2.35s10.45-1.69,15.67-2.56c4.85-.81,10.08-1.34,14.8.42,3.56,1.33,6.92,4.1,7.91,7.89,1.72,6.6-3.71,14.85,1.13,20.7,2.41,2.91,6.6,3.45,10.07,2.56a31.25,31.25,0,0,0,8.68-4.15c3.12-1.95,6.1-4.12,9.13-6.21a46.77,46.77,0,0,1,8.07-4.89,8.23,8.23,0,0,1,8.55.87c2.87,2.08,5.05,5.06,7.52,7.57,1.46,1.48,3.07,2.76,4.61,4.15a51.45,51.45,0,0,1,4.85,5.05,93.26,93.26,0,0,1,8,11.41c1.15,1.85,2.26,3.72,3.38,5.6a17.72,17.72,0,0,1,2.17,4.46c.08.29.25.82.09,1.1s-.78.34-1,.43a7.45,7.45,0,0,0-1.37.85c-.78.57-1.47,1.25-2.25,1.81a11.31,11.31,0,0,1-2.78,1.28c-4.2,1.59-8.44,3.61-11.51,7a14.77,14.77,0,0,0-4,10.92c.67,7.48,7.64,10.21,13.77,12.43,2.86,1,5.95,2.08,8.21,4.21,3,2.8,3.22,6.77,2.05,10.5-1.43,4.51-4.36,8.38-7,12.22l-9.21,13.24L190,161.38c-1.08,1.56-2.32,4.18-4.54,4.15-2,0-4-1.63-5.66-2.65a17,17,0,0,0-5.1-2.09,15.87,15.87,0,0,0-10.47,1.07,11.89,11.89,0,0,0-6.33,9c-.68,4.43.43,8.78,1.07,13.14.51,3.43.65,7.47-1.12,10.58-2.31,4-7.66,4.17-11.75,4.88q-8,1.38-16.06,2.6c-5.2.79-10.42,1.55-15.64,2.19-2.16.26-4.64.58-6.59-.61a5.48,5.48,0,0,1-2.38-3.55c-.82-3.38-.14-7-.16-10.47a15.91,15.91,0,0,0-3.46-10.42A15.58,15.58,0,0,0,92,173.67c-4.36-.62-8.4,1.06-12.23,2.94-4.25,2.09-8.36,3.88-13.17,4.09a40.8,40.8,0,0,1-14.19-2.26,113.88,113.88,0,0,1-13.76-5.7,67.62,67.62,0,0,1-6.16-3.18c-1.65-1-3.63-2.29-4.68-4-1.78-2.86-1.08-7.19-.2-10.22.12-.39.24-.77.38-1.15,0-.08.26-.62.1-.3s0,0,0,0a10.23,10.23,0,0,1,.56-.89c.53-.74,1.15-1.46,1.8-2.21,3.74-4.36,7.81-8.46,11.93-12.46,4.4-4.28,9.34-7.94,13.67-12.32s7.85-8.93,12-13.24A129.68,129.68,0,0,1,88.3,95.21c14.33-9.83,33.23-17,50.53-11.07a22.86,22.86,0,0,1,15.76,17.75,33.38,33.38,0,0,1-3.9,23.39A34.16,34.16,0,0,1,133.1,140.6a31.57,31.57,0,0,1-23.46-.8c-6.54-2.92-15.27-9.88-12.52-18.05,1.1-3.25,3.89-5.73,6.68-7.56a44.93,44.93,0,0,1,10.34-4.84c3.78-1.28,9.22-3,12.78-.26,2.16,1.68,3.72,5.41,1.39,7.57-1.42,1.31.7,3.43,2.12,2.12,2.74-2.54,2.45-6.68.52-9.63-2.54-3.87-7-4.87-11.39-4.27a44.42,44.42,0,0,0-12.85,4.24,29,29,0,0,0-9.42,6.68,13.49,13.49,0,0,0-3.63,10.09c.44,4.56,3.25,8.42,6.58,11.39a33.6,33.6,0,0,0,23.45,8.17c17.28-.66,31.74-14.95,34.18-31.84,1.22-8.4-.43-17.37-5.85-24.08-5.9-7.32-15.64-10.1-24.7-10.43-19.13-.7-36.93,9.43-51,21.61a166,166,0,0,0-16.65,16.9,126.57,126.57,0,0,1-15.57,15.14,125.68,125.68,0,0,0-11.26,11c-2,2.06-3.92,4.14-5.7,6.37a13.74,13.74,0,0,0-2.92,6.52c-.66,3.5-.9,7.9,1.31,10.93,2.72,3.75,7.54,5.85,11.59,7.76,9.09,4.3,19,8.76,29.25,8.38a33.43,33.43,0,0,0,13.79-4c4-2,8.23-4.07,12.76-2.85a12.77,12.77,0,0,1,8.54,7.68c1.3,3.57.59,7.56.55,11.27,0,3.36.32,7.18,3,9.53,3.8,3.28,9.25,1.88,13.74,1.28,11.07-1.49,22.21-3,33.17-5.23,4.33-.87,7.72-3.05,9.28-7.3,1.37-3.74,1.05-7.94.4-11.79-.76-4.43-2.07-9.64,0-13.9,1.64-3.38,5.2-5,8.83-5.08a14.28,14.28,0,0,1,5.41.94c2,.74,3.62,2.1,5.48,3s4.11,1.61,6.21.76,3.49-3.13,4.8-5L202.19,149c3-4.34,6.3-8.6,8.92-13.19,2.22-3.89,4.06-8.42,3.27-13a12.38,12.38,0,0,0-6.31-8.42c-2.95-1.72-6.29-2.68-9.47-3.89-2.79-1.07-5.86-2.44-7.53-5.06-2.29-3.56-1.21-8.2,1.22-11.4,2.86-3.8,7.53-5.85,11.87-7.43a10.26,10.26,0,0,0,2.67-1.33c.87-.64,1.64-1.41,2.54-2,1.46-1,3.07-1.21,3.37-3.24.26-1.73-.56-3.51-1.32-5-.88-1.73-1.93-3.37-2.93-5a132.58,132.58,0,0,0-8-12.15,65.53,65.53,0,0,0-4.64-5.48c-1.68-1.74-3.54-3.23-5.33-4.85-5-4.59-9.65-12.82-17.56-11.73-3.25.45-6.17,2.24-8.88,4-3.22,2.09-6.31,4.38-9.5,6.52a43.51,43.51,0,0,1-9.17,5.14c-3.08,1.12-7.55,1.31-9.14-2.22-1.44-3.17-.18-7.36.25-10.63.52-3.93.57-7.94-1.66-11.39a17.16,17.16,0,0,0-10-6.94c-5.25-1.41-10.78-.65-16,.27-10.93,1.93-22,3.11-32.88,5.16-1.19.23-2.21.42-2.55,1.76a7.14,7.14,0,0,0,.08,2.91c.47,2.92,1.33,5.78,2,8.67a33,33,0,0,1,1.12,9.48c-.26,3.58-2.57,7-5.23,9.27-3,2.53-7,3.79-10.72,2.29s-6.82-4.74-10.88-5.54a7.18,7.18,0,0,0-5.42,1c-2,1.34-3.4,3.62-4.86,5.51q-5,6.5-10.05,13C24,81,17.74,89.85,19.83,99.22c1.6,7.16,8.53,14.08,16.32,12a1.51,1.51,0,0,0-.8-2.9Z"/></svg>
