<svg id="Layer_1" data-name="Layer 1" xmlns="http://www.w3.org/2000/svg" viewBox="0 0 236 226"><defs><style>.cls-1{fill:#050000;}</style></defs><title>ui_icon</title><path class="cls-1" d="M35.35,108.27c-7.71,2.11-13.36-7-12.87-13.71C22.81,90,24.9,85.79,27.33,82c2.58-4,5.62-7.72,8.54-11.49l5-6.4c1.47-1.89,2.85-4.22,4.69-5.76,3.06-2.57,7.08.59,9.76,2.24,3.37,2.08,6.76,3.64,10.81,3a16.15,16.15,0,0,0,9.49-5.83,16.62,16.62,0,0,0,4-9.47A36.06,36.06,0,0,0,78.5,39c-.61-2.85-1.41-5.66-2-8.51-.18-.89-.11-1.46-.24-2.35,0,.21.09.06-.06.23s-.77.36-.85.48c.13-.2,1.58-.27,1.84-.31l2.17-.37c5.23-.88,10.5-1.59,15.75-2.35s10.45-1.69,15.67-2.56c4.85-.81,10.08-1.34,14.8.42,3.56,1.33,6.92,4.1,7.91,7.89,1.72,6.6-3.71,14.85,1.13,20.7,2.41,2.91,6.6,3.45,10.07,2.56a31.25,31.25,0,0,0,8.68-4.15c3.12-1.95,6.1-4.12,9.13-6.21a46.77,46.77,0,0,1,8.07-4.89,8.23,8.23,0,0,1,8.55.87c2.87,2.08,5.05,5.06,7.52,7.57,1.46,1.48,3.07,2.76,4.61,4.15a51.45,51.45,0,0,1,4.85,5.05,93.26,93.26,0,0,1,8,11.41c1.15,1.85,2.26,3.72,3.38,5.6a17.72,17.72,0,0,1,2.17,4.46c.08.29.25.82.09,1.1s-.78.34-1,.43a7.45,7.45,0,0,0-1.37.85c-.78.57-1.47,1.25-2.25,1.81a11.31,11.31,0,0,1-2.78,1.28c-4.2,1.59-8.44,3.61-11.51,7a14.77,14.77,0,0,0-4,10.92c.67,7.48,7.64,10.21,13.77,12.43,2.86,1,5.95,2.08,8.21,4.21,3,2.8,3.22,6.77,2.05,10.5-1.43,4.51-4.36,8.38-7,12.22l-9.21,13.24L190,161.38c-1.08,1.56-2.32,4.18-4.54,4.15-2,0-4-1.63-5.66-2.65a17,17,0,0,0-5.1-2.09,15.87,15.87,0,0,0-10.47,1.07,11.89,11.89,0,0,0-6.33,9c-.68,4.43.43,8.78,1.07,13.14.51,3.43.65,7.47-1.12,10.58-2.31,4-7.66,4.17-11.75,4.88q-8,1.38-16.06,2.6c-5.2.79-10.42,1.55-15.64,2.19-2.16.26-4.64.58-6.59-.61a5.48,5.48,0,0,1-2.38-3.55c-.82-3.38-.14-7-.16-10.47a15.91,15.91,0,0,0-3.46-10.42A15.58,15.58,0,0,0,92,173.67c-4.36-.62-8.4,1.06-12.23,2.94-4.25,2.09-8.36,3.88-13.17,4.09a40.8,40.8,0,0,1-14.19-2.26,113.88,113.88,0,0,1-13.76-5.7,67.62,67.62,0,0,1-6.16-3.18c-1.65-1-3.63-2.29-4.68-4-1.78-2.86-1.08-7.19-.2-10.22.12-.39.24-.77.38-1.15,0-.08.26-.62.1-.3s0,0,0,0a10.23,10.23,0,0,1,.56-.89c.53-.74,1.15-1.46,1.8-2.21,3.74-4.36,7.81-8.46,11.93-12.46,4.4-4.28,9.34-7.94,13.67-12.32s7.85-8.93,12-13.24A129.68,129.68,0,0,1,88.3,95.21c14.33-9.83,33.23-17,50.53-11.07a22.86,22.86,0,0,1,15.76,17.75,33.38,33.38,0,0,1-3.9,23.39A34.16,34.16,0,0,1,133.1,140.6a31.57,31.57,0,0,1-23.46-.8c-6.54-2.92-15.27-9.88-12.52-18.05,1.1-3.25,3.89-5.73,6.68-7.56a44.93,44.93,0,0,1,10.34-4.84c3.78-1.28,9.22-3,12.78-.26,2.16,1.68,3.72,5.41,1.39,7.57-1.42,1.31.7,3.43,2.12,2.12,2.74-2.54,2.45-6.68.52-9.63-2.54-3.87-7-4.87-11.39-4.27a44.42,44.42,0,0,0-12.85,4.24,29,29,0,0,0-9.42,6.68,13.49,13.49,0,0,0-3.63,10.09c.44,4.56,3.25,8.42,6.58,11.39a33.6,33.6,0,0,0,23.45,8.17c17.28-.66,31.74-14.95,34.18-31.84,1.22-8.4-.43-17.37-5.85-24.08-5.9-7.32-15.64-10.1-24.7-10.43-19.13-.7-36.93,9.43-51,21.61a166,166,0,0,0-16.65,16.9,126.57,126.57,0,0,1-15.57,15.14,125.68,125.68,0,0,0-11.26,11c-2,2.06-3.92,4.14-5.7,6.37a13.74,13.74,0,0,0-2.92,6.52c-.66,3.5-.9,7.9,1.31,10.93,2.72,3.75,7.54,5.85,11.59,7.76,9.09,4.3,19,8.76,29.25,8.38a33.43,33.43,0,0,0,13.79-4c4-2,8.23-4.07,12.76-2.85a12.77,12.77,0,0,1,8.54,7.68c1.3,3.57.59,7.56.55,11.27,0,3.36.32,7.18,3,9.53,3.8,3.28,9.25,1.88,13.74,1.28,11.07-1.49,22.21-3,33.17-5.23,4.33-.87,7.72-3.05,9.28-7.3,1.37-3.74,1.05-7.94.4-11.79-.76-4.43-2.07-9.64,0-13.9,1.64-3.38,5.2-5,8.83-5.08a14.28,14.28,0,0,1,5.41.94c2,.74,3.62,2.1,5.48,3s4.11,1.61,6.21.76,3.49-3.13,4.8-5L202.19,149c3-4.34,6.3-8.6,8.92-13.19,2.22-3.89,4.06-8.42,3.27-13a12.38,12.38,0,0,0-6.31-8.42c-2.95-1.72-6.29-2.68-9.47-3.89-2.79-1.07-5.86-2.44-7.53-5.06-2.29-3.56-1.21-8.2,1.22-11.4,2.86-3.8,7.53-5.85,11.87-7.43a10.26,10.26,0,0,0,2.67-1.33c.87-.64,1.64-1.41,2.54-2,1.46-1,3.07-1.21,3.37-3.24.26-1.73-.56-3.51-1.32-5-.88-1.73-1.93-3.37-2.93-5a132.58,132.58,0,0,0-8-12.15,65.53,65.53,0,0,0-4.64-5.48c-1.68-1.74-3.54-3.23-5.33-4.85-5-4.59-9.65-12.82-17.56-11.73-3.25.45-6.17,2.24-8.88,4-3.22,2.09-6.31,4.38-9.5,6.52a43.51,43.51,0,0,1-9.17,5.14c-3.08,1.12-7.55,1.31-9.14-2.22-1.44-3.17-.18-7.36.25-10.63.52-3.93.57-7.94-1.66-11.39a17.16,17.16,0,0,0-10-6.94c-5.25-1.41-10.78-.65-16,.27-10.93,1.93-22,3.11-32.88,5.16-1.19.23-2.21.42-2.55,1.76a7.14,7.14,0,0,0,.08,2.91c.47,2.92,1.33,5.78,2,8.67a33,33,0,0,1,1.12,9.48c-.26,3.58-2.57,7-5.23,9.27-3,2.53-7,3.79-10.72,2.29s-6.82-4.74-10.88-5.54a7.18,7.18,0,0,0-5.42,1c-2,1.34-3.4,3.62-4.86,5.51q-5,6.5-10.05,13C24,81,17.74,89.85,19.83,99.22c1.6,7.16,8.53,14.08,16.32,12a1.51,1.51,0,0,0-.8-2.9Z"/></svg>
