<svg id="Layer_1" data-name="Layer 1" xmlns="http://www.w3.org/2000/svg" viewBox="0 0 244 226"><defs><style>.cls-1{opacity:0.84;}.cls-2{fill:#f2c0c0;}</style></defs><title>web_icon</title><g class="cls-1"><path class="cls-2" d="M107,18.63A142.18,142.18,0,0,0,71,37.19,121.2,121.2,0,0,0,42.61,65.5a98.43,98.43,0,0,0-16.13,36.75,94.62,94.62,0,0,0,.27,40.17,79.42,79.42,0,0,0,18.54,35.72c10.08,11.06,23,19.3,36.3,25.9,14,7,29.17,12.1,44.84,13.53a99.06,99.06,0,0,0,36.83-3.75,110.54,110.54,0,0,0,33.38-16.34,109,109,0,0,0,26.1-26.42,96,96,0,0,0,14.85-33.74,101.84,101.84,0,0,0,1.21-36.26,111.08,111.08,0,0,0-11-34.66,107.48,107.48,0,0,0-21.63-29.15,94.88,94.88,0,0,0-32.62-20.44c-14-5.13-30-6.74-44.13-1.4-6.21,2.33-12.06,6.06-15.91,11.56a19.85,19.85,0,0,0-3,16.88C112,49.14,116.17,54.16,121.89,55a13.93,13.93,0,0,0,13.92-7.61,9.7,9.7,0,0,0,.48-7.8c-1.09-2.59-4.19-3.74-6.81-3.7a14.52,14.52,0,0,0-8.08,2.87c-2.6,1.91-4.64,4.47-7.11,6.54A11,11,0,0,1,104.93,48c-3.47-.52-6.91-1.46-10.32-.11-2.64,1.06-5,3.32-4.8,6.38.23,3.28,3.08,5.55,3.83,8.7a12.27,12.27,0,0,1-6.15,13.49,1.51,1.51,0,0,0,0,2.59,61.26,61.26,0,0,0,26.17,11,62.2,62.2,0,0,0,14.29.77c4.4-.29,9-.85,13.07-2.65,3.44-1.52,6.74-4.23,7.11-8.21a7.55,7.55,0,0,0-4.48-7.52c-7.43-3.46-15.92.22-22.88,3-5,2-10,4.26-14.84,6.69A102.27,102.27,0,0,0,93.39,89.3c-6.69,4.67-13.12,11.54-13,20.23.07,6.79,4.06,14.65,11.32,15.93a21.3,21.3,0,0,0,6.57-.2c2.25-.29,4.91-.68,6.84.8,3.27,2.5,2.72,8,2.68,11.6L107.59,155c0,5.28-.35,10.63.1,15.9.4,4.72,1.55,9.48,4.58,13.23a14.85,14.85,0,0,0,10.64,5.71c4.57.17,8.16-2.68,10.76-6.16a86.69,86.69,0,0,0,7.52-12.92,152.48,152.48,0,0,0,11.14-29,152,152,0,0,0,3.3-15.21q.62-3.82,1.05-7.67a31.45,31.45,0,0,0,.32-6.43c-.34-3.52-2-7.56-6.05-7.79-3.83-.22-7.42,2.92-9,6.18-3.11,6.37-1.33,14.8,4.36,19.1,6.9,5.23,17,4.18,23.94-.44,7.74-5.15,12.18-14.1,14.56-22.85,1.51-5.56,1.32-15.32-5.24-17.7a7,7,0,0,0-2.23-.41,3,3,0,0,0-2.5,1.16,7.71,7.71,0,0,0-2,4.7c-.27,3.62,1.69,7.34,4.26,9.77,6.87,6.47,18.36,3.13,24.86,10,2.36,2.52,3.92,6.27,1.64,9.32-1.16,1.55,1.44,3,2.59,1.52,4.47-6-1.23-13.89-6.94-16.42-4-1.79-8.5-2.18-12.76-3.23-3.6-.88-7-2.24-9.05-5.47-1.75-2.73-2.57-6.5.23-8.8l-1.06.44c5.52-.29,6.18,7.29,5.82,11.27a33.73,33.73,0,0,1-2.74,9.47,37.08,37.08,0,0,1-5.58,9.61c-4.5,5.43-11,9-18.18,8.49-6.21-.43-11.37-4.43-12.39-10.68a12.44,12.44,0,0,1,1.07-7.6c1.14-2.19,4-5.17,6.76-4.35,2.59.78,2.73,4.77,2.65,6.94a90.4,90.4,0,0,1-1.47,11.93,149.43,149.43,0,0,1-16.27,46.91c-3,5.48-7.25,14.9-15,13s-10.29-10-10.69-17c-.25-4.28-.07-8.59,0-12.88l.15-13.85c0-3.88.35-7.86-.15-11.72-.42-3.13-1.6-6.34-4.47-8-3.48-2-7.45-.72-11.18-.5a9.4,9.4,0,0,1-7.46-2.71,15.3,15.3,0,0,1-3.29-15.4c2.35-6.72,8.43-11.41,14.3-14.94a161.66,161.66,0,0,1,22.67-11.08c5.84-2.36,12.35-5.44,18.83-4.13,2,.41,4.28,1.33,5,3.47.9,2.83-1,5.21-3.32,6.62-2.89,1.79-6.27,2.45-9.59,2.92a57.68,57.68,0,0,1-11.45.44,59.24,59.24,0,0,1-21.94-5.62A59.7,59.7,0,0,1,89,76.41V79a15.18,15.18,0,0,0,7.93-13.48,14.2,14.2,0,0,0-2.38-7.84c-.78-1.21-2-2.63-1.74-4.17a3.89,3.89,0,0,1,2.37-2.66c3-1.5,6.46-.35,9.63.09a13.29,13.29,0,0,0,9.43-1.9c4.84-3.18,8-9.11,14.1-10.08,2.23-.35,5,.19,5.45,2.73a7.89,7.89,0,0,1-2.2,6.62c-3.58,3.94-9.42,5.12-13.75,1.68-4-3.22-5.66-9-4.93-14,.89-6.07,5.34-11,10.33-14.25,11.89-7.67,27.4-8,40.77-4.73a87.53,87.53,0,0,1,34.32,17.32A102.49,102.49,0,0,1,221,60.51a109.24,109.24,0,0,1,13.12,32,102.08,102.08,0,0,1,2.13,34.53,91.37,91.37,0,0,1-10.43,33.19,102,102,0,0,1-22.06,27.69,108.79,108.79,0,0,1-29.9,18.92,101.12,101.12,0,0,1-34.42,8c-13.78.66-27.43-1.95-40.38-6.57a147.59,147.59,0,0,1-38.94-20.73c-10.82-8.16-19.83-18.46-25.46-30.85a85,85,0,0,1-7.2-37.45A92.8,92.8,0,0,1,36.41,82,107.47,107.47,0,0,1,59,51,130.85,130.85,0,0,1,90.45,28.9a140.86,140.86,0,0,1,17.3-7.37c1.81-.64,1-3.54-.79-2.9Z"/><path class="cls-2" d="M105.41,104.68a1.5,1.5,0,0,0,0-3,1.5,1.5,0,0,0,0,3Z"/><path class="cls-2" d="M118.25,144.56a44,44,0,0,0,22.54-5,43.88,43.88,0,0,0,18.83-12.1,43.79,43.79,0,0,0,12.1-18.83,44,44,0,0,0,5-22.54l-2.08-15.55a58.46,58.46,0,0,0-15-25.81l-11.84-9.15a58.32,58.32,0,0,0-29.53-8,44.1,44.1,0,0,0-22.53,5A43.79,43.79,0,0,0,76.89,44.7a43.82,43.82,0,0,0-12.1,18.82,44.16,44.16,0,0,0-5,22.54l2.09,15.56a58.46,58.46,0,0,0,15,25.81l11.84,9.15a58.21,58.21,0,0,0,29.52,8Z"/><path class="cls-2" d="M119.48,141.2a44.06,44.06,0,0,0,22.54-5,43.89,43.89,0,0,0,18.82-12.09,43.85,43.85,0,0,0,12.1-18.83,44.13,44.13,0,0,0,5-22.54l-2.09-15.55a58.49,58.49,0,0,0-15-25.82L149,32.19a58.19,58.19,0,0,0-29.52-8,44.11,44.11,0,0,0-22.54,5A43.92,43.92,0,0,0,78.11,41.33,43.92,43.92,0,0,0,66,60.16,43.93,43.93,0,0,0,61,82.7l2.09,15.55a58.47,58.47,0,0,0,15,25.82L90,133.21a58.15,58.15,0,0,0,29.53,8Z"/><path class="cls-2" d="M119.78,140.28a44,44,0,0,0,22.54-5,43.94,43.94,0,0,0,18.83-12.1,43.94,43.94,0,0,0,12.1-18.83,44,44,0,0,0,5-22.54l-2.09-15.55a58.44,58.44,0,0,0-15-25.81l-11.84-9.15a58.32,58.32,0,0,0-29.53-8,44.16,44.16,0,0,0-22.54,5,43.82,43.82,0,0,0-18.82,12.1,43.82,43.82,0,0,0-12.1,18.82,44.16,44.16,0,0,0-5,22.54l2.09,15.56a58.46,58.46,0,0,0,15.05,25.81l11.84,9.15a58.18,58.18,0,0,0,29.52,8Z"/><path class="cls-2" d="M120.39,138.14a43.91,43.91,0,0,0,22.54-5A43.77,43.77,0,0,0,161.76,121a43.85,43.85,0,0,0,12.1-18.83,44,44,0,0,0,5-22.54l-2.08-15.55a58.46,58.46,0,0,0-15.05-25.81l-11.84-9.15a58.32,58.32,0,0,0-29.53-8,44.1,44.1,0,0,0-22.53,5A43.79,43.79,0,0,0,79,38.28,43.82,43.82,0,0,0,66.93,57.1a44.16,44.16,0,0,0-5,22.54L64,95.19A58.43,58.43,0,0,0,79,121l11.84,9.15a58.21,58.21,0,0,0,29.52,8Z"/><path class="cls-2" d="M137.46,135.4a115.63,115.63,0,0,0,16.31-6.88A16.79,16.79,0,0,0,156.2,127L168,117.8A43.85,43.85,0,0,0,180.13,99a29,29,0,0,0,4-14.76,44.21,44.21,0,0,0-1-23.33l-5.9-14L168,35.07A43.76,43.76,0,0,0,149.21,23a44.13,44.13,0,0,0-22.54-5l-2.59-.21,41.37,99.86a17.24,17.24,0,0,1,1.58-1.37l-11.84,9.15a17.1,17.1,0,0,1,3.62-2.08l-14,5.9a19.05,19.05,0,0,1,2.66-.83A58.48,58.48,0,0,0,173.3,30.58C162.45,19.24,146.55,13,131,13a67.38,67.38,0,0,0-16.23,2.15,6.92,6.92,0,0,0-1.06.35A44.06,44.06,0,0,0,93.78,25.94,44.25,44.25,0,0,0,78.71,42.35,43.49,43.49,0,0,0,71.77,64.1a44.32,44.32,0,0,0,1,23.33l5.9,14a58.73,58.73,0,0,0,21,21l14,5.9a58.82,58.82,0,0,0,31.1,0,19.61,19.61,0,0,1,2.62-.53l-15.56,2.09a19.32,19.32,0,0,1,4.56,0l-15.55-2.09c1.26.18,2.49.47,3.74.65l15.55,2.09.37,0c.31,0,.62,0,.93,0l.54,0,15.55-2.09c.37-.08.72-.15,1.07-.26a44,44,0,0,0,19.9-10.47,44.27,44.27,0,0,0,15.07-16.42,43.62,43.62,0,0,0,6.94-21.75,44.28,44.28,0,0,0-1.05-23.32l-5.89-14a59,59,0,0,0-21-21l-14-5.89a58.82,58.82,0,0,0-31.1,0,9.81,9.81,0,0,1-1.07.26L142,13.52a9.43,9.43,0,0,1-1.84,0l15.55,2.09c-7-.95-13.91-2.65-21-2.87a19.5,19.5,0,0,0-2.86.14c-3.79.4-12.54,1.09-18.16,2.62l31.1,112.82a5.72,5.72,0,0,1,1.34-.39L130.56,130a2.35,2.35,0,0,1,.53,0l-15.56-2.09a1.56,1.56,0,0,1,.48.14l-14-5.89.21.13L90.4,113.12l.17.19,25.82-97.78a17.47,17.47,0,0,0-2.34.7A123.67,123.67,0,0,0,98.18,23a18.34,18.34,0,0,0-2.05,1.32L84.29,33.48l-.54.43c-.36.3-.7.62-1,.94L73.57,46.69l-5.9,14L65.58,76.22a44.16,44.16,0,0,0,5,22.54,29.2,29.2,0,0,0,7.53,12.9,29.32,29.32,0,0,0,10.49,10.5,29.25,29.25,0,0,0,12.91,7.52,44.1,44.1,0,0,0,22.53,5l2.59.21-29.53-109A16.63,16.63,0,0,1,93.4,28.1l14-5.89-1,.37a44.1,44.1,0,0,0-19.9,10.47A44.25,44.25,0,0,0,71.4,49.47a43.43,43.43,0,0,0-6.94,21.75,44.18,44.18,0,0,0,1,23.32l5.9,14a58.75,58.75,0,0,0,21,21l14,5.9a58.82,58.82,0,0,0,31.1,0Z"/><path class="cls-2" d="M132.27,26.31c-5.27-.85-10.57-1.54-15.88-2.13l-.4,0a7.51,7.51,0,0,0-.82,0c-2.68.21-6.59.88-8.14,1.09s-5.49.6-8.14,1.1a7,7,0,0,0-.79.2A44,44,0,0,0,78.21,37,44.17,44.17,0,0,0,63.14,53.43,43.43,43.43,0,0,0,56.2,75.18a44.32,44.32,0,0,0,1,23.33l5.9,14a58.8,58.8,0,0,0,21,21l14,5.9a59,59,0,0,0,31.1,0,6.73,6.73,0,0,1,1.16-.27l-15.55,2.09a6.83,6.83,0,0,1,1.69,0L101,139.1l.22,0a44.32,44.32,0,0,0,23.33,1.05,43.59,43.59,0,0,0,21.75-6.94,44.17,44.17,0,0,0,16.41-15.07,44.06,44.06,0,0,0,10.47-19.89l2.09-15.56a58.18,58.18,0,0,0-8-29.52l-9.15-11.84a58.49,58.49,0,0,0-25.82-15Z"/><path class="cls-2" d="M102.36,148.23a44,44,0,0,0,22.54-5,43.89,43.89,0,0,0,18.82-12.09,43.85,43.85,0,0,0,12.1-18.83,44.11,44.11,0,0,0,5-22.54l-2.09-15.55a58.46,58.46,0,0,0-15.05-25.81l-11.84-9.15a58.29,58.29,0,0,0-29.52-8,44.11,44.11,0,0,0-22.54,5A43.85,43.85,0,0,0,61,48.37,43.79,43.79,0,0,0,48.9,67.19a44,44,0,0,0-5,22.54L46,105.28A58.47,58.47,0,0,0,61,131.1l11.84,9.15a58.22,58.22,0,0,0,29.53,8Z"/><path class="cls-2" d="M109.69,141.81a43.91,43.91,0,0,0,22.54-5,43.86,43.86,0,0,0,18.83-12.09,43.94,43.94,0,0,0,12.1-18.83,44,44,0,0,0,5-22.54L166.1,67.76a58.34,58.34,0,0,0-15-25.81L139.22,32.8a58.22,58.22,0,0,0-29.53-8,44.1,44.1,0,0,0-22.53,5A43.79,43.79,0,0,0,68.33,42a43.82,43.82,0,0,0-12.1,18.82,44.13,44.13,0,0,0-5,22.54l2.09,15.55a58.49,58.49,0,0,0,15,25.82l11.84,9.15a58.18,58.18,0,0,0,29.52,8Z"/><path class="cls-2" d="M90.43,159.54a44,44,0,0,0,22.54-5,43.85,43.85,0,0,0,18.83-12.1,43.77,43.77,0,0,0,12.09-18.83,43.91,43.91,0,0,0,5-22.54l-2.09-15.55a58.44,58.44,0,0,0-15-25.81L120,50.53a58.35,58.35,0,0,0-29.53-8,44.16,44.16,0,0,0-22.54,5,43.82,43.82,0,0,0-18.82,12.1A43.79,43.79,0,0,0,37,78.51a44.1,44.1,0,0,0-5,22.53L34,116.6a58.46,58.46,0,0,0,15,25.81l11.84,9.15a58.18,58.18,0,0,0,29.52,8Z"/><path class="cls-2" d="M84.62,182.17a44.11,44.11,0,0,0,22.54-5A43.79,43.79,0,0,0,126,165a43.85,43.85,0,0,0,12.1-18.82,44,44,0,0,0,5-22.54L141,108.12A58.38,58.38,0,0,0,126,82.3l-11.84-9.14a58.13,58.13,0,0,0-29.53-8,43.9,43.9,0,0,0-22.53,5A43.86,43.86,0,0,0,43.26,82.3a43.85,43.85,0,0,0-12.1,18.83,44.11,44.11,0,0,0-5,22.54l2.09,15.55a58.4,58.4,0,0,0,15,25.81l11.84,9.15a58.19,58.19,0,0,0,29.52,8Z"/><path class="cls-2" d="M84.93,174.83a43.93,43.93,0,0,0,22.54-5A43.92,43.92,0,0,0,126.3,157.7a43.92,43.92,0,0,0,12.09-18.83,44.11,44.11,0,0,0,5-22.54l-2.09-15.55A58.38,58.38,0,0,0,126.3,75l-11.84-9.15a58.25,58.25,0,0,0-29.53-8,44.13,44.13,0,0,0-22.54,5A43.85,43.85,0,0,0,43.56,75,43.83,43.83,0,0,0,31.47,93.79a44.13,44.13,0,0,0-5,22.54l2.09,15.55a58.47,58.47,0,0,0,15,25.82l11.84,9.14a58.15,58.15,0,0,0,29.53,8Z"/><path class="cls-2" d="M89.82,197.76a44,44,0,0,0,22.54-5,43.92,43.92,0,0,0,18.83-12.09,43.92,43.92,0,0,0,12.09-18.83,43.91,43.91,0,0,0,5-22.54l-2.09-15.55a58.38,58.38,0,0,0-15-25.81l-11.84-9.15a58.25,58.25,0,0,0-29.53-8,44.13,44.13,0,0,0-22.54,5A43.76,43.76,0,0,0,48.46,97.9a43.76,43.76,0,0,0-12.1,18.82,44.13,44.13,0,0,0-5,22.54l2.09,15.55a58.49,58.49,0,0,0,15.05,25.82l11.84,9.14a58.09,58.09,0,0,0,29.52,8Z"/><path class="cls-2" d="M110.31,210.3a44.1,44.1,0,0,0,22.53-5,43.79,43.79,0,0,0,18.83-12.1,43.82,43.82,0,0,0,12.1-18.82,44.16,44.16,0,0,0,5-22.54l-2.09-15.56a58.46,58.46,0,0,0-15.05-25.81l-11.84-9.15a58.18,58.18,0,0,0-29.52-8,44,44,0,0,0-22.54,5,43.88,43.88,0,0,0-18.83,12.1,43.88,43.88,0,0,0-12.1,18.83,44,44,0,0,0-5,22.54l2.09,15.55a58.34,58.34,0,0,0,15,25.81l11.84,9.15a58.32,58.32,0,0,0,29.53,8Z"/><path class="cls-2" d="M102.24,205.51a44.1,44.1,0,0,0,22.53-5,43.79,43.79,0,0,0,18.83-12.1,43.82,43.82,0,0,0,12.1-18.82,44.16,44.16,0,0,0,5-22.54l-2.09-15.56a58.46,58.46,0,0,0-15.05-25.81l-11.84-9.15a58.18,58.18,0,0,0-29.52-8,44,44,0,0,0-22.54,5,43.88,43.88,0,0,0-18.83,12.1,43.94,43.94,0,0,0-12.1,18.83,44,44,0,0,0-5,22.54l2.09,15.55a58.34,58.34,0,0,0,15,25.81l11.84,9.15a58.32,58.32,0,0,0,29.53,8Z"/><path class="cls-2" d="M153.41,187.37a44.11,44.11,0,0,0,22.54-5,43.79,43.79,0,0,0,18.83-12.1,43.91,43.91,0,0,0,12.1-18.82,44,44,0,0,0,5-22.54l-2.09-15.56a58.44,58.44,0,0,0-15-25.81l-11.84-9.15a58.22,58.22,0,0,0-29.53-8,44,44,0,0,0-22.53,5,43.88,43.88,0,0,0-18.83,12.1A43.79,43.79,0,0,0,100,106.33a44.11,44.11,0,0,0-5,22.54L97,144.42a58.46,58.46,0,0,0,15,25.81l11.84,9.15a58.29,58.29,0,0,0,29.52,8Z"/><path class="cls-2" d="M172.06,166.58a44.11,44.11,0,0,0,22.54-5,43.79,43.79,0,0,0,18.83-12.1,43.91,43.91,0,0,0,12.1-18.82,44,44,0,0,0,5-22.54l-2.09-15.56a58.44,58.44,0,0,0-15-25.81l-11.84-9.15a58.22,58.22,0,0,0-29.53-8,44,44,0,0,0-22.54,5,43.91,43.91,0,0,0-18.82,12.1,43.85,43.85,0,0,0-12.1,18.83,44.11,44.11,0,0,0-5,22.54l2.09,15.55a58.46,58.46,0,0,0,15,25.81l11.84,9.15a58.29,58.29,0,0,0,29.52,8Z"/><path class="cls-2" d="M169,145.48a44.06,44.06,0,0,0,22.54-5,43.89,43.89,0,0,0,18.82-12.09,43.85,43.85,0,0,0,12.1-18.83,44.11,44.11,0,0,0,5-22.54l-2.09-15.55a58.4,58.4,0,0,0-15-25.81l-11.84-9.15a58.19,58.19,0,0,0-29.52-8,44.11,44.11,0,0,0-22.54,5,43.85,43.85,0,0,0-18.83,12.1,43.85,43.85,0,0,0-12.1,18.82,44,44,0,0,0-5,22.54l2.09,15.55a58.47,58.47,0,0,0,15,25.82l11.84,9.14a58.13,58.13,0,0,0,29.53,8Z"/><path class="cls-2" d="M158.61,135.7a44.11,44.11,0,0,0,22.54-5A43.85,43.85,0,0,0,200,118.56a43.89,43.89,0,0,0,12.09-18.82,44,44,0,0,0,5-22.54L215,61.65a58.47,58.47,0,0,0-15-25.82l-11.84-9.15a58.24,58.24,0,0,0-29.53-8,43.93,43.93,0,0,0-22.54,5,43.83,43.83,0,0,0-18.82,12.09,43.85,43.85,0,0,0-12.1,18.83,44.11,44.11,0,0,0-5,22.54l2.09,15.55a58.46,58.46,0,0,0,15,25.81l11.84,9.15a58.29,58.29,0,0,0,29.52,8Z"/><path class="cls-2" d="M153.72,132a44.13,44.13,0,0,0,22.54-5,43.85,43.85,0,0,0,18.83-12.1,43.83,43.83,0,0,0,12.09-18.82,44.13,44.13,0,0,0,5-22.54L210.13,58a58.47,58.47,0,0,0-15-25.82L183.25,23a58.15,58.15,0,0,0-29.53-8,43.93,43.93,0,0,0-22.54,5,43.92,43.92,0,0,0-18.83,12.09A43.92,43.92,0,0,0,100.26,51a44.11,44.11,0,0,0-5,22.54l2.09,15.55a58.38,58.38,0,0,0,15,25.81L124.19,124a58.25,58.25,0,0,0,29.53,8Z"/><path class="cls-2" d="M165.34,140.59a44.16,44.16,0,0,0,22.54-5,43.82,43.82,0,0,0,18.82-12.1,43.76,43.76,0,0,0,12.1-18.82,44.13,44.13,0,0,0,5-22.54l-2.09-15.55A58.49,58.49,0,0,0,206.7,40.72l-11.84-9.14a58.09,58.09,0,0,0-29.52-8,44,44,0,0,0-22.54,5A43.92,43.92,0,0,0,124,40.72a43.92,43.92,0,0,0-12.09,18.83,43.91,43.91,0,0,0-5,22.54l2.09,15.55a58.38,58.38,0,0,0,15,25.81l11.84,9.15a58.25,58.25,0,0,0,29.53,8Z"/><path class="cls-2" d="M177.26,156.18a43.91,43.91,0,0,0,22.54-5,43.92,43.92,0,0,0,18.83-12.09,43.92,43.92,0,0,0,12.09-18.83,44,44,0,0,0,5-22.54l-2.09-15.55a58.44,58.44,0,0,0-15-25.81l-11.84-9.15a58.25,58.25,0,0,0-29.53-8,44.13,44.13,0,0,0-22.54,5,43.76,43.76,0,0,0-18.82,12.1,43.76,43.76,0,0,0-12.1,18.82,44.13,44.13,0,0,0-5,22.54l2.09,15.55a58.49,58.49,0,0,0,15.05,25.82l11.84,9.14a58.09,58.09,0,0,0,29.52,8Z"/><path class="cls-2" d="M179.71,178.19a44,44,0,0,0,22.54-5,43.91,43.91,0,0,0,18.82-12.1,43.79,43.79,0,0,0,12.1-18.83,44.11,44.11,0,0,0,5-22.54l-2.09-15.55a58.46,58.46,0,0,0-15.05-25.81l-11.84-9.15a58.29,58.29,0,0,0-29.52-8,44.11,44.11,0,0,0-22.54,5,43.85,43.85,0,0,0-18.83,12.1,43.77,43.77,0,0,0-12.09,18.83,43.9,43.9,0,0,0-5,22.53l2.09,15.56a58.44,58.44,0,0,0,15,25.81l11.84,9.15a58.24,58.24,0,0,0,29.53,8Z"/><path class="cls-2" d="M172.06,196.54a44.11,44.11,0,0,0,22.54-5,43.79,43.79,0,0,0,18.83-12.1,43.85,43.85,0,0,0,12.1-18.82,44,44,0,0,0,5-22.54l-2.09-15.55a58.47,58.47,0,0,0-15-25.82l-11.84-9.14a58.13,58.13,0,0,0-29.53-8,44,44,0,0,0-22.54,5A43.89,43.89,0,0,0,130.7,96.67a43.85,43.85,0,0,0-12.1,18.83,44.11,44.11,0,0,0-5,22.54l2.09,15.55a58.46,58.46,0,0,0,15,25.81l11.84,9.15a58.19,58.19,0,0,0,29.52,8Z"/><path class="cls-2" d="M176.34,190.42a44,44,0,0,0,22.54-5,43.88,43.88,0,0,0,18.83-12.1,43.94,43.94,0,0,0,12.1-18.83,44,44,0,0,0,5-22.54l-2.09-15.55a58.44,58.44,0,0,0-15-25.81l-11.84-9.15a58.32,58.32,0,0,0-29.53-8,44.1,44.1,0,0,0-22.53,5A43.79,43.79,0,0,0,135,90.56a43.82,43.82,0,0,0-12.1,18.82,44.16,44.16,0,0,0-5,22.54l2.09,15.56a58.46,58.46,0,0,0,15,25.81l11.84,9.15a58.18,58.18,0,0,0,29.52,8Z"/><path class="cls-2" d="M149.44,209.38a44.13,44.13,0,0,0,22.54-5,43.85,43.85,0,0,0,18.83-12.1,43.83,43.83,0,0,0,12.09-18.82,44.13,44.13,0,0,0,5-22.54l-2.09-15.55a58.47,58.47,0,0,0-15-25.82L179,100.37a58.15,58.15,0,0,0-29.53-8,44,44,0,0,0-22.54,5,43.92,43.92,0,0,0-18.83,12.09A43.92,43.92,0,0,0,96,128.34a44.11,44.11,0,0,0-5,22.54L93,166.43a58.38,58.38,0,0,0,15,25.81l11.84,9.15a58.25,58.25,0,0,0,29.53,8Z"/><path class="cls-2" d="M131.1,216.11a44.1,44.1,0,0,0,22.53-5A43.79,43.79,0,0,0,172.46,199a43.79,43.79,0,0,0,12.1-18.83,44.1,44.1,0,0,0,5-22.53l-2.09-15.56a58.46,58.46,0,0,0-15-25.81l-11.84-9.15a58.18,58.18,0,0,0-29.52-8,44,44,0,0,0-22.54,5,43.79,43.79,0,0,0-18.83,12.1,43.88,43.88,0,0,0-12.1,18.83,44,44,0,0,0-5,22.54l2.09,15.55a58.34,58.34,0,0,0,15,25.81l11.84,9.15a58.32,58.32,0,0,0,29.53,8Z"/><path class="cls-2" d="M145.46,214.58a44.11,44.11,0,0,0,22.54-5,43.79,43.79,0,0,0,18.83-12.1,43.82,43.82,0,0,0,12.1-18.82,44,44,0,0,0,5-22.54l-2.08-15.56a58.46,58.46,0,0,0-15-25.81L175,105.56a58.22,58.22,0,0,0-29.53-8,44,44,0,0,0-22.53,5,43.88,43.88,0,0,0-18.83,12.1A43.85,43.85,0,0,0,92,133.54a44.11,44.11,0,0,0-5,22.54l2.09,15.55a58.46,58.46,0,0,0,15,25.81l11.84,9.15a58.32,58.32,0,0,0,29.52,8Z"/><path class="cls-2" d="M156.47,210.3a44.11,44.11,0,0,0,22.54-5,43.85,43.85,0,0,0,18.83-12.1,43.89,43.89,0,0,0,12.09-18.82,44,44,0,0,0,5-22.54l-2.09-15.56a58.44,58.44,0,0,0-15-25.81L186,101.28a58.24,58.24,0,0,0-29.53-8,44,44,0,0,0-22.54,5,43.85,43.85,0,0,0-18.82,12.1A43.79,43.79,0,0,0,103,129.26a44.11,44.11,0,0,0-5,22.54l2.09,15.55a58.46,58.46,0,0,0,15,25.81L127,202.31a58.29,58.29,0,0,0,29.52,8Z"/><path class="cls-2" d="M163.81,205.1a44.13,44.13,0,0,0,22.54-5A43.76,43.76,0,0,0,205.17,188a43.76,43.76,0,0,0,12.1-18.82,44.13,44.13,0,0,0,5-22.54l-2.09-15.55a58.49,58.49,0,0,0-15.05-25.82l-11.84-9.14a58.09,58.09,0,0,0-29.52-8,43.91,43.91,0,0,0-22.54,5,43.92,43.92,0,0,0-18.83,12.09,43.92,43.92,0,0,0-12.09,18.83,44,44,0,0,0-5,22.54l2.09,15.55a58.38,58.38,0,0,0,15,25.81l11.84,9.15a58.25,58.25,0,0,0,29.53,8Z"/></g><path d="M92.22,18.46A142.29,142.29,0,0,0,56.29,37,121,121,0,0,0,27.88,65.33a98.38,98.38,0,0,0-16.14,36.75A94.46,94.46,0,0,0,12,142.25,79.32,79.32,0,0,0,30.56,178c10.08,11.06,23,19.3,36.3,25.9,14,6.95,29.16,12.1,44.83,13.53a99.27,99.27,0,0,0,36.83-3.75,110.82,110.82,0,0,0,33.39-16.34A108.94,108.94,0,0,0,208,170.89a95.81,95.81,0,0,0,14.86-33.74,101.61,101.61,0,0,0,1.2-36.26,110.82,110.82,0,0,0-11-34.66A107.65,107.65,0,0,0,191.4,37.08a95.07,95.07,0,0,0-32.62-20.44c-14-5.13-30-6.74-44.14-1.4-6.21,2.33-12.06,6.06-15.9,11.56a19.89,19.89,0,0,0-3,16.88C97.31,49,101.44,54,107.15,54.8a13.94,13.94,0,0,0,13.93-7.61,9.69,9.69,0,0,0,.47-7.8c-1.09-2.59-4.19-3.74-6.8-3.7a14.52,14.52,0,0,0-8.08,2.87c-2.6,1.91-4.65,4.46-7.11,6.54a11.08,11.08,0,0,1-9.37,2.68c-3.47-.52-6.91-1.46-10.31-.11-2.65,1.06-5,3.32-4.81,6.38.23,3.28,3.09,5.55,3.83,8.7a12.25,12.25,0,0,1-6.15,13.49,1.52,1.52,0,0,0,0,2.59,61.3,61.3,0,0,0,26.18,11,62.09,62.09,0,0,0,14.28.77c4.4-.29,9-.85,13.07-2.65,3.45-1.52,6.75-4.23,7.11-8.21a7.55,7.55,0,0,0-4.48-7.52c-7.43-3.46-15.91.22-22.87,3q-7.56,3-14.84,6.69a100.27,100.27,0,0,0-12.54,7.17c-6.7,4.67-13.12,11.54-13,20.23C65.7,116.15,69.7,124,77,125.29a21.32,21.32,0,0,0,6.57-.2c2.24-.29,4.9-.68,6.84.8,3.27,2.49,2.71,8,2.67,11.6l-.18,17.32c-.06,5.28-.35,10.63.09,15.9.4,4.72,1.55,9.48,4.58,13.23a14.88,14.88,0,0,0,10.64,5.71c4.57.17,8.16-2.68,10.77-6.16a86.63,86.63,0,0,0,7.51-12.92,152.77,152.77,0,0,0,11.15-29,149.24,149.24,0,0,0,3.29-15.21q.63-3.83,1.06-7.67a31.45,31.45,0,0,0,.32-6.43c-.34-3.52-2-7.56-6.05-7.79-3.84-.22-7.42,2.92-9,6.18-3.11,6.37-1.32,14.8,4.36,19.1,6.91,5.23,17,4.18,23.94-.44,7.74-5.15,12.19-14.1,14.57-22.85,1.51-5.56,1.31-15.32-5.25-17.7a7,7,0,0,0-2.22-.41,2.93,2.93,0,0,0-2.5,1.16,7.66,7.66,0,0,0-2,4.7c-.27,3.62,1.69,7.34,4.27,9.77,6.86,6.47,18.36,3.13,24.85,10,2.37,2.52,3.93,6.27,1.64,9.32-1.15,1.55,1.45,3.05,2.59,1.52,4.47-6-1.23-13.89-6.93-16.42-4.05-1.79-8.5-2.18-12.77-3.23-3.6-.88-7-2.24-9-5.47C161,97,160.18,93.25,163,91l-1.06.44c5.52-.29,6.17,7.29,5.82,11.27a34.18,34.18,0,0,1-2.75,9.47,37.08,37.08,0,0,1-5.58,9.61c-4.5,5.43-11,9-18.18,8.49-6.21-.43-11.37-4.43-12.38-10.69a12.42,12.42,0,0,1,1.07-7.59c1.13-2.19,4-5.17,6.75-4.35s2.73,4.76,2.66,6.94a90.42,90.42,0,0,1-1.48,11.93,149.43,149.43,0,0,1-16.27,46.91c-3,5.48-7.24,14.9-15,13s-10.29-10-10.69-17c-.24-4.28-.07-8.59,0-12.88L96,142.69c0-3.88.35-7.86-.16-11.72-.41-3.13-1.59-6.34-4.46-8-3.49-2-7.45-.72-11.19-.5a9.39,9.39,0,0,1-7.45-2.71c-3.89-3.86-5.08-10.29-3.3-15.4C71.78,97.64,77.87,93,83.74,89.42A161.54,161.54,0,0,1,106.4,78.34c5.84-2.36,12.35-5.45,18.83-4.14,2,.42,4.28,1.34,5,3.48.91,2.83-1,5.21-3.32,6.62-2.88,1.79-6.27,2.45-9.58,2.92a57.78,57.78,0,0,1-11.46.44A58.66,58.66,0,0,1,74.26,76.24v2.59a15.16,15.16,0,0,0,7.93-13.48,14.33,14.33,0,0,0-2.37-7.85c-.78-1.2-2-2.62-1.75-4.16a3.89,3.89,0,0,1,2.37-2.66c3.06-1.5,6.46-.35,9.63.09a13.32,13.32,0,0,0,9.44-1.9c4.84-3.18,8-9.11,14.09-10.08,2.23-.35,5,.19,5.46,2.73a7.9,7.9,0,0,1-2.21,6.62c-3.57,3.94-9.41,5.12-13.74,1.68-4-3.22-5.66-9-4.93-14,.88-6.07,5.33-11,10.33-14.25,11.89-7.67,27.39-8,40.76-4.73a87.58,87.58,0,0,1,34.32,17.31A102.74,102.74,0,0,1,206.3,60.34a109.24,109.24,0,0,1,13.12,32,102.06,102.06,0,0,1,2.12,34.53,91.55,91.55,0,0,1-10.42,33.19,102.37,102.37,0,0,1-22.06,27.69,108.94,108.94,0,0,1-29.9,18.92,101.17,101.17,0,0,1-34.42,8c-13.78.66-27.43-2-40.39-6.57a147.88,147.88,0,0,1-38.94-20.73C34.59,179.22,25.59,168.92,20,156.53a85,85,0,0,1-7.21-37.45,92.81,92.81,0,0,1,8.93-37.29A107.25,107.25,0,0,1,44.27,50.87,130.57,130.57,0,0,1,75.71,28.73,141,141,0,0,1,93,21.36c1.81-.64,1-3.54-.8-2.9Z"/></svg>
