<svg id="Layer_1" data-name="Layer 1" xmlns="http://www.w3.org/2000/svg" viewBox="0 0 236 226"><title>web_icon</title><path d="M92.22,18.46A142.29,142.29,0,0,0,56.29,37,121,121,0,0,0,27.88,65.33a98.38,98.38,0,0,0-16.14,36.75A94.46,94.46,0,0,0,12,142.25,79.32,79.32,0,0,0,30.56,178c10.08,11.06,23,19.3,36.3,25.9,14,6.95,29.16,12.1,44.83,13.53a99.27,99.27,0,0,0,36.83-3.75,110.82,110.82,0,0,0,33.39-16.34A108.94,108.94,0,0,0,208,170.89a95.81,95.81,0,0,0,14.86-33.74,101.61,101.61,0,0,0,1.2-36.26,110.82,110.82,0,0,0-11-34.66A107.65,107.65,0,0,0,191.4,37.08a95.07,95.07,0,0,0-32.62-20.44c-14-5.13-30-6.74-44.14-1.4-6.21,2.33-12.06,6.06-15.9,11.56a19.89,19.89,0,0,0-3,16.88C97.31,49,101.44,54,107.15,54.8a13.94,13.94,0,0,0,13.93-7.61,9.69,9.69,0,0,0,.47-7.8c-1.09-2.59-4.19-3.74-6.8-3.7a14.52,14.52,0,0,0-8.08,2.87c-2.6,1.91-4.65,4.46-7.11,6.54a11.08,11.08,0,0,1-9.37,2.68c-3.47-.52-6.91-1.46-10.31-.11-2.65,1.06-5,3.32-4.81,6.38.23,3.28,3.09,5.55,3.83,8.7a12.25,12.25,0,0,1-6.15,13.49,1.52,1.52,0,0,0,0,2.59,61.3,61.3,0,0,0,26.18,11,62.09,62.09,0,0,0,14.28.77c4.4-.29,9-.85,13.07-2.65,3.45-1.52,6.75-4.23,7.11-8.21a7.55,7.55,0,0,0-4.48-7.52c-7.43-3.46-15.91.22-22.87,3q-7.56,3-14.84,6.69a100.27,100.27,0,0,0-12.54,7.17c-6.7,4.67-13.12,11.54-13,20.23C65.7,116.15,69.7,124,77,125.29a21.32,21.32,0,0,0,6.57-.2c2.24-.29,4.9-.68,6.84.8,3.27,2.49,2.71,8,2.67,11.6l-.18,17.32c-.06,5.28-.35,10.63.09,15.9.4,4.72,1.55,9.48,4.58,13.23a14.88,14.88,0,0,0,10.64,5.71c4.57.17,8.16-2.68,10.77-6.16a86.63,86.63,0,0,0,7.51-12.92,152.77,152.77,0,0,0,11.15-29,149.24,149.24,0,0,0,3.29-15.21q.63-3.83,1.06-7.67a31.45,31.45,0,0,0,.32-6.43c-.34-3.52-2-7.56-6.05-7.79-3.84-.22-7.42,2.92-9,6.18-3.11,6.37-1.32,14.8,4.36,19.1,6.91,5.23,17,4.18,23.94-.44,7.74-5.15,12.19-14.1,14.57-22.85,1.51-5.56,1.31-15.32-5.25-17.7a7,7,0,0,0-2.22-.41,2.93,2.93,0,0,0-2.5,1.16,7.66,7.66,0,0,0-2,4.7c-.27,3.62,1.69,7.34,4.27,9.77,6.86,6.47,18.36,3.13,24.85,10,2.37,2.52,3.93,6.27,1.64,9.32-1.15,1.55,1.45,3.05,2.59,1.52,4.47-6-1.23-13.89-6.93-16.42-4.05-1.79-8.5-2.18-12.77-3.23-3.6-.88-7-2.24-9-5.47C161,97,160.18,93.25,163,91l-1.06.44c5.52-.29,6.17,7.29,5.82,11.27a34.18,34.18,0,0,1-2.75,9.47,37.08,37.08,0,0,1-5.58,9.61c-4.5,5.43-11,9-18.18,8.49-6.21-.43-11.37-4.43-12.38-10.69a12.42,12.42,0,0,1,1.07-7.59c1.13-2.19,4-5.17,6.75-4.35s2.73,4.76,2.66,6.94a90.42,90.42,0,0,1-1.48,11.93,149.43,149.43,0,0,1-16.27,46.91c-3,5.48-7.24,14.9-15,13s-10.29-10-10.69-17c-.24-4.28-.07-8.59,0-12.88L96,142.69c0-3.88.35-7.86-.16-11.72-.41-3.13-1.59-6.34-4.46-8-3.49-2-7.45-.72-11.19-.5a9.39,9.39,0,0,1-7.45-2.71c-3.89-3.86-5.08-10.29-3.3-15.4C71.78,97.64,77.87,93,83.74,89.42A161.54,161.54,0,0,1,106.4,78.34c5.84-2.36,12.35-5.45,18.83-4.14,2,.42,4.28,1.34,5,3.48.91,2.83-1,5.21-3.32,6.62-2.88,1.79-6.27,2.45-9.58,2.92a57.78,57.78,0,0,1-11.46.44A58.66,58.66,0,0,1,74.26,76.24v2.59a15.16,15.16,0,0,0,7.93-13.48,14.33,14.33,0,0,0-2.37-7.85c-.78-1.2-2-2.62-1.75-4.16a3.89,3.89,0,0,1,2.37-2.66c3.06-1.5,6.46-.35,9.63.09a13.32,13.32,0,0,0,9.44-1.9c4.84-3.18,8-9.11,14.09-10.08,2.23-.35,5,.19,5.46,2.73a7.9,7.9,0,0,1-2.21,6.62c-3.57,3.94-9.41,5.12-13.74,1.68-4-3.22-5.66-9-4.93-14,.88-6.07,5.33-11,10.33-14.25,11.89-7.67,27.39-8,40.76-4.73a87.58,87.58,0,0,1,34.32,17.31A102.74,102.74,0,0,1,206.3,60.34a109.24,109.24,0,0,1,13.12,32,102.06,102.06,0,0,1,2.12,34.53,91.55,91.55,0,0,1-10.42,33.19,102.37,102.37,0,0,1-22.06,27.69,108.94,108.94,0,0,1-29.9,18.92,101.17,101.17,0,0,1-34.42,8c-13.78.66-27.43-2-40.39-6.57a147.88,147.88,0,0,1-38.94-20.73C34.59,179.22,25.59,168.92,20,156.53a85,85,0,0,1-7.21-37.45,92.81,92.81,0,0,1,8.93-37.29A107.25,107.25,0,0,1,44.27,50.87,130.57,130.57,0,0,1,75.71,28.73,141,141,0,0,1,93,21.36c1.81-.64,1-3.54-.8-2.9Z"/></svg>
