<svg id="Layer_1" data-name="Layer 1" xmlns="http://www.w3.org/2000/svg" xmlns:xlink="http://www.w3.org/1999/xlink" viewBox="0 0 231.13 231.13"><defs><style>.cls-1,.cls-4{fill:none;}.cls-2{clip-path:url(#clip-path);}.cls-3{fill:#00b7a4;}.cls-4{stroke:#00b7a4;}.cls-5{fill:#e5e1e1;}.cls-6{fill:#bfbfbf;}.cls-7{fill:#e94545;}.cls-8{fill:#160c0c;}.cls-9{fill:#353030;}</style><clipPath id="clip-path"><rect class="cls-1" x="-21.8" y="-20.7" width="260" height="260"/></clipPath></defs><title>streetart_favicon</title><g class="cls-2"><g id="streetart_icon" data-name="streetart icon"><rect id="Rectangle_2" data-name="Rectangle 2" class="cls-3" x="60.62" y="168.25" width="14" height="52"/><rect id="Rectangle_3" data-name="Rectangle 3" class="cls-3" x="80.62" y="181.25" width="11" height="24"/><ellipse id="Ellipse_2" data-name="Ellipse 2" class="cls-3" cx="67.62" cy="219.75" rx="7" ry="6.5"/><ellipse id="Ellipse_3" data-name="Ellipse 3" class="cls-3" cx="86.12" cy="205.75" rx="5.5" ry="6.5"/><circle id="Ellipse_4" data-name="Ellipse 4" class="cls-3" cx="14.62" cy="178.25" r="10"/><ellipse id="Ellipse_5" data-name="Ellipse 5" class="cls-3" cx="36.12" cy="194.25" rx="4.5" ry="4"/><circle id="Ellipse_6" data-name="Ellipse 6" class="cls-3" cx="218.62" cy="123.25" r="8"/><g id="Ellipse_1" data-name="Ellipse 1"><ellipse class="cls-3" cx="104.62" cy="110.47" rx="95" ry="96"/><ellipse class="cls-4" cx="104.62" cy="110.47" rx="94.5" ry="95.5"/></g><path id="Path_4" data-name="Path 4" class="cls-5" d="M63,87h95.32V37.75L118.41,63.1H63Z"/><path id="Path_5" data-name="Path 5" class="cls-6" d="M63,86.57h95.32v49.34l-39.86-25.4H63Z"/><path id="Path_6" data-name="Path 6" class="cls-7" d="M63,63.15l-11.66,10V99.06L63,110.47Z"/><path id="Path_7" data-name="Path 7" class="cls-8" d="M74.62,110.48V158H90.7l8.67-8.57V110.48Z"/><path id="Path_8" data-name="Path 8" class="cls-9" d="M87,110.48v47.3h3.8l8.49-8.49V110.48Z"/><ellipse id="Ellipse_7" data-name="Ellipse 7" class="cls-3" cx="44.62" cy="28.25" rx="23" ry="21"/><ellipse id="Ellipse_8" data-name="Ellipse 8" class="cls-3" cx="134.62" cy="179.25" rx="23" ry="21"/><ellipse id="Ellipse_9" data-name="Ellipse 9" class="cls-3" cx="166.62" cy="165.75" rx="25" ry="24.5"/><ellipse id="Ellipse_10" data-name="Ellipse 10" class="cls-3" cx="29.62" cy="49.75" rx="18" ry="16.5"/></g></g></svg>
