<svg xmlns="http://www.w3.org/2000/svg" xmlns:xlink="http://www.w3.org/1999/xlink" viewBox="0 0 574 420"><defs><style>.cls-1{isolation:isolate;}.cls-2{fill:#010101;}.cls-3{opacity:0.75;mix-blend-mode:multiply;}.cls-4{fill:#515151;}</style></defs><title>web_pic copy 3</title><g class="cls-1"><g id="Layer_1" data-name="Layer 1"><path class="cls-2" d="M546.69,8H27.93A18.23,18.23,0,0,0,9.75,26.18V324.06a18.23,18.23,0,0,0,18.18,18.18H546.69a18.23,18.23,0,0,0,18.18-18.18V26.18A18.23,18.23,0,0,0,546.69,8Zm3.86,317.63H24.07V28.11H550.55Z"/><image class="cls-3" width="188" height="84" transform="translate(193 336)" xlink:href="web_pic%20copy%2031.png"/><path class="cls-4" d="M339.61,378.47c-5.49-8.23-10.52-24.54-12.86-36.23H247.28c-2.33,11.69-7.37,28-12.85,36.23-14,21-25.71,14-25.71,17.53h156.6C365.32,392.49,353.63,399.51,339.61,378.47Z"/></g></g></svg>